<?xml version="1.0" encoding="utf-8"?>
<!-- Generator: Adobe Illustrator 24.3.0, SVG Export Plug-In . SVG Version: 6.00 Build 0)  -->
<svg version="1.1" id="Layer_1" xmlns="http://www.w3.org/2000/svg" xmlns:xlink="http://www.w3.org/1999/xlink" x="0px" y="0px"
	 viewBox="0 0 1900 1500" style="enable-background:new 0 0 1900 1500;" xml:space="preserve">
<style type="text/css">
	.st0{fill-rule:evenodd;clip-rule:evenodd;fill:url(#S1_10_);}
	.st1{fill-rule:evenodd;clip-rule:evenodd;fill:url(#S1_2_6_);}
	.st2{fill-rule:evenodd;clip-rule:evenodd;fill:#CF67E9;}
	.st3{fill-rule:evenodd;clip-rule:evenodd;fill:#FFFFFF;}
	.st4{opacity:0.85;fill-rule:evenodd;clip-rule:evenodd;fill:url(#SVGID_1_);enable-background:new    ;}
	.st5{fill-rule:evenodd;clip-rule:evenodd;fill:url(#S1_11_);}
	.st6{fill-rule:evenodd;clip-rule:evenodd;fill:url(#S1_2_7_);}
	.st7{fill-rule:evenodd;clip-rule:evenodd;fill:#B28DF1;}
	.st8{fill-rule:evenodd;clip-rule:evenodd;fill:#9C6CD5;}
	.st9{opacity:0.85;fill-rule:evenodd;clip-rule:evenodd;fill:url(#SVGID_2_);enable-background:new    ;}
	.st10{fill-rule:evenodd;clip-rule:evenodd;fill:url(#S1_12_);}
	.st11{fill-rule:evenodd;clip-rule:evenodd;fill:url(#S1_2_8_);}
	.st12{fill-rule:evenodd;clip-rule:evenodd;fill:#889FF1;}
	.st13{fill-rule:evenodd;clip-rule:evenodd;fill:#7F80DC;}
	.st14{opacity:0.75;fill-rule:evenodd;clip-rule:evenodd;fill:url(#SVGID_3_);enable-background:new    ;}
	.st15{fill-rule:evenodd;clip-rule:evenodd;fill:url(#S1_13_);}
	.st16{fill-rule:evenodd;clip-rule:evenodd;fill:url(#S1_2_9_);}
	.st17{fill-rule:evenodd;clip-rule:evenodd;fill:#5DADEC;}
	.st18{fill-rule:evenodd;clip-rule:evenodd;fill:#5B94E1;}
	.st19{opacity:0.58;fill-rule:evenodd;clip-rule:evenodd;fill:url(#SVGID_4_);enable-background:new    ;}
	.st20{fill-rule:evenodd;clip-rule:evenodd;fill:url(#S1_14_);}
	.st21{fill-rule:evenodd;clip-rule:evenodd;fill:url(#S1_2_10_);}
	.st22{fill-rule:evenodd;clip-rule:evenodd;fill:#2AA4CC;}
	.st23{fill-rule:evenodd;clip-rule:evenodd;fill:#239BB7;}
	.st24{fill:none;stroke:#27B6E5;stroke-width:7;stroke-linecap:round;stroke-linejoin:round;}
	.st25{fill-rule:evenodd;clip-rule:evenodd;fill:#27B6E5;}
	.st26{fill:none;stroke:#8B8AEF;stroke-width:7;stroke-linecap:round;stroke-linejoin:round;}
	.st27{fill-rule:evenodd;clip-rule:evenodd;fill:#8786EC;}
	.st28{fill:none;stroke:#E56EF9;stroke-width:7;stroke-linecap:round;stroke-linejoin:round;}
	.st29{fill-rule:evenodd;clip-rule:evenodd;fill:#E471F9;}
	.st30{fill:none;stroke:#B887F6;stroke-width:7;stroke-linecap:round;stroke-linejoin:round;}
	.st31{fill-rule:evenodd;clip-rule:evenodd;fill:#B887F6;}
	.st32{fill:none;stroke:#5992DF;stroke-width:7;stroke-linecap:round;stroke-linejoin:round;}
	.st33{fill-rule:evenodd;clip-rule:evenodd;fill:#5992DF;}
	.st34{opacity:0.49;fill-rule:evenodd;clip-rule:evenodd;fill:url(#SVGID_5_);enable-background:new    ;}
	.st35{display:none;}
	.st36{display:inline;}
	.st37{fill-rule:evenodd;clip-rule:evenodd;fill:#33BAE5;}
	.st38{fill-rule:evenodd;clip-rule:evenodd;}
	.st39{font-family:'SassoonSansStd';}
	.st40{font-size:24.0955px;}
	.st41{fill:#27B6E5;}
	.st42{font-family:'SassoonSansStd-Bold';}
	.st43{font-size:61.6502px;}
	.st44{font-size:30.7589px;}
	.st45{font-family:'MyriadPro-Regular';}
	.st46{font-size:8.2346px;}
	.st47{fill:#8786EC;}
	.st48{fill:#E471F9;}
	.st49{fill:#B887F6;}
	.st50{font-size:25.3718px;}
	.st51{fill:#5992DF;}
</style>
<g id="Layer_2_2_">
	<g id="Layer_6">
		
			<linearGradient id="S1_10_" gradientUnits="userSpaceOnUse" x1="-2642.759" y1="1836.7941" x2="-2642.3484" y2="1836.7932" gradientTransform="matrix(1116.9238 0 0 -326.655 2952572.75 601177.25)">
			<stop  offset="0" style="stop-color:#CC63E3"/>
			<stop  offset="0.2549" style="stop-color:#DE6DF9"/>
			<stop  offset="0.2588" style="stop-color:#E27DFC"/>
			<stop  offset="0.6275" style="stop-color:#EBA5FE"/>
			<stop  offset="0.8118" style="stop-color:#F6D7FD"/>
			<stop  offset="0.8784" style="stop-color:#EFB1FE"/>
			<stop  offset="1" style="stop-color:#E795FD"/>
		</linearGradient>
		<path id="S1_1_" class="st0" d="M1311.3,1068.4c-0.1,0-765.5-1.2-765.6-1.2l0.8,82.3c0.1,0,382.3,141.8,382.4,141.8
			c0.1,0,383.3-139.6,383.4-139.6C1312.2,1151.7,1311.3,1068.4,1311.3,1068.4z"/>
		
			<linearGradient id="S1_2_6_" gradientUnits="userSpaceOnUse" x1="-2642.8315" y1="1835.2836" x2="-2642.324" y2="1835.2722" gradientTransform="matrix(1115.6239 0 0 -403.298 2949134.5 741230.875)">
			<stop  offset="1.570000e-02" style="stop-color:#E1B8FE"/>
			<stop  offset="0.7963" style="stop-color:#E6D8F1"/>
			<stop  offset="0.8199" style="stop-color:#E6D3F4"/>
			<stop  offset="0.9137" style="stop-color:#E7C6FB"/>
			<stop  offset="1" style="stop-color:#E7C2FE"/>
		</linearGradient>
		<path id="S1_2" class="st1" d="M931.9,928c-0.1,0-386.1,139.2-386.2,139.2c0.1,0,384.1,137.4,384.1,137.4
			c0.1,0,381.5-136.3,381.5-136.3L931.9,928z"/>
		<path id="S1_2_2" class="st2" d="M928,1012.9l-160,55.8l162.6,58.3l161-58.3C1091.6,1068.6,928.1,1012.9,928,1012.9z"/>
		<path id="S2" class="st2" d="M927.7,1013c0,29.5,0,58.9,0,88.4c0,8.2,0,16.3,0,24.5c1,0.3,2,0.7,3,1.1
			c53.8-19.5,107.3-38.9,161-58.3c-54.3-18.7-109-37.2-163.5-55.8C927.9,1012.9,927.8,1012.9,927.7,1013z"/>
		<path id="S3" class="st3" d="M976.6,1110.3c-16.7-7.1-33.3-14.1-50-21.1c-15.1,6.7-30.1,13.4-45.3,20.1
			c16.5,5.9,32.9,11.8,49.4,17.7C945.9,1121.4,961.3,1115.9,976.6,1110.3z"/>
	</g>
	<g id="Layer_5">
		
			<radialGradient id="SVGID_1_" cx="167.3606" cy="-7702.5166" r="110.4276" gradientTransform="matrix(1.8801 0 0 0.2185 614.7458 2762.6045)" gradientUnits="userSpaceOnUse">
			<stop  offset="2.814647e-02" style="stop-color:#000000;stop-opacity:0.4"/>
			<stop  offset="1" style="stop-color:#000000;stop-opacity:0"/>
		</radialGradient>
		<ellipse class="st4" cx="929.4" cy="1079.7" rx="268.1" ry="26.9"/>
		
			<linearGradient id="S1_11_" gradientUnits="userSpaceOnUse" x1="-2642.5896" y1="1836.8783" x2="-2642.1497" y2="1836.8759" gradientTransform="matrix(1014.268 0 0 -309.4641 2681099.25 569410.25)">
			<stop  offset="0" style="stop-color:#A672DE"/>
			<stop  offset="0.2784" style="stop-color:#B379EE"/>
			<stop  offset="0.2824" style="stop-color:#B08BF7"/>
			<stop  offset="0.6275" style="stop-color:#CDB7F9"/>
			<stop  offset="0.8118" style="stop-color:#E7DCFC"/>
			<stop  offset="0.8784" style="stop-color:#DECDFA"/>
			<stop  offset="1" style="stop-color:#BEA0F8"/>
		</linearGradient>
		<path id="S1_2_" class="st5" d="M1276.2,857.2c-0.1,0-695.1-1.1-695.2-1.1l0.7,87.3c0.1,0,347.2,125,347.2,125
			S1277,943.6,1277,943.6C1277,943.7,1276.2,857.2,1276.2,857.2z"/>
		
			<linearGradient id="S1_2_7_" gradientUnits="userSpaceOnUse" x1="-2642.6628" y1="1835.6056" x2="-2642.155" y2="1835.5941" gradientTransform="matrix(1013.0861 0 0 -366.23 2677973.25 673107.5)">
			<stop  offset="0" style="stop-color:#B6C2FE"/>
			<stop  offset="0.8863" style="stop-color:#E1E6FD"/>
			<stop  offset="1" style="stop-color:#C3CCFD"/>
		</linearGradient>
		<path id="S1_2_1_" class="st6" d="M931.7,729.7c-0.1,0-350.7,126.5-350.7,126.5c0.1,0,348.7,124.8,348.8,124.8
			c0,0,346.4-123.7,346.4-123.8C1276.1,857.2,931.7,729.7,931.7,729.7z"/>
		<path id="S1_2_2_1_" class="st7" d="M928.2,806.8l-145.3,50.7l147.6,52.9l146.2-53L928.2,806.8z"/>
		<path id="S2_1_" class="st8" d="M927.8,806.9c0,26.8,0,53.5,0,80.3c0,7.4,0,14.8,0,22.2c0.9,0.3,1.8,0.6,2.7,1
			c48.9-17.7,97.4-35.3,146.2-53c-49.3-16.9-99-33.8-148.5-50.6C928,806.8,927.9,806.8,927.8,806.9z"/>
		<path id="S3_1_" class="st3" d="M962.1,898.9c-11.7-5.8-23.5-11.5-35.3-17.3c-10.7,5.3-21.4,10.6-32.2,15.9
			c11.9,4.3,23.9,8.6,35.9,12.9C941,906.6,951.6,902.7,962.1,898.9z"/>
	</g>
	<g id="Layer_4">
		
			<radialGradient id="SVGID_2_" cx="437.6813" cy="-7465.5679" r="110.5022" gradientTransform="matrix(1.4363 0 0 0.2185 301.8566 2477.1904)" gradientUnits="userSpaceOnUse">
			<stop  offset="2.814647e-02" style="stop-color:#000000;stop-opacity:0.4"/>
			<stop  offset="1" style="stop-color:#000000;stop-opacity:0"/>
		</radialGradient>
		<ellipse class="st9" cx="930.5" cy="846" rx="204.8" ry="26.9"/>
		
			<linearGradient id="S1_12_" gradientUnits="userSpaceOnUse" x1="-2642.3833" y1="1837.0363" x2="-2641.9602" y2="1837.033" gradientTransform="matrix(921.835 0 0 -289.998 2436658.75 533482.5625)">
			<stop  offset="0" style="stop-color:#7B7ED4"/>
			<stop  offset="0.2902" style="stop-color:#8484E2"/>
			<stop  offset="0.2941" style="stop-color:#8299F2"/>
			<stop  offset="0.6275" style="stop-color:#9FB2F6"/>
			<stop  offset="0.8118" style="stop-color:#CBD5F8"/>
			<stop  offset="0.8784" style="stop-color:#B8C5F8"/>
			<stop  offset="1" style="stop-color:#9CAEF4"/>
		</linearGradient>
		<path id="S1_3_" class="st10" d="M1244.2,647c-0.1,0-632.5-0.1-632.6-0.1l0.6,83c0,0,316.4,116,316.5,116
			c0,0,313.9-116.7,313.9-116.8C1242.5,729.2,1244.2,647,1244.2,647z"/>
		
			<linearGradient id="S1_2_8_" gradientUnits="userSpaceOnUse" x1="-2642.459" y1="1836.0233" x2="-2641.9514" y2="1836.0111" gradientTransform="matrix(921.7941 0 0 -328.285 2436550.75 603385.9375)">
			<stop  offset="0" style="stop-color:#89CBFD"/>
			<stop  offset="0.806" style="stop-color:#B8DFFD"/>
			<stop  offset="1" style="stop-color:#9ED2FD"/>
		</linearGradient>
		<path id="S1_2_2_" class="st11" d="M930.6,535.9l-319,111l317.9,114.3c0,0,314.6-114.2,314.7-114.2
			C1244.1,647,930.6,535.9,930.6,535.9z"/>
		<path id="S1_2_2_2_" class="st12" d="M928,598.2c0,0-130.9,48.2-131,48.2l133.1,50.3l131.8-50.4C1061.9,646.4,928,598.2,928,598.2
			z"/>
		<path id="S2_2_" class="st13" d="M927.7,598.4c0,25.5,0,50.9,0,76.4c0,7.1,0,14.1,0,21.1c0.8,0.3,1.6,0.6,2.4,0.9
			c44.1-16.8,87.8-33.6,131.8-50.4c-44.5-16.1-89.3-32.1-133.9-48.2C927.9,598.3,927.8,598.3,927.7,598.4z"/>
		<path id="S3_2_" class="st3" d="M949.2,689.5c-6.9-3.9-13.8-7.8-20.7-11.7c-7.1,3.4-14.2,6.9-21.4,10.3c7.7,2.9,15.4,5.8,23.1,8.7
			C936.5,694.3,942.9,691.9,949.2,689.5z"/>
	</g>
	<g id="Layer_3">
		
			<radialGradient id="SVGID_3_" cx="431.4226" cy="-7246.1509" r="110.4184" gradientTransform="matrix(1.4363 0 0 0.2185 301.8566 2212.3391)" gradientUnits="userSpaceOnUse">
			<stop  offset="2.814647e-02" style="stop-color:#000000;stop-opacity:0.4"/>
			<stop  offset="1" style="stop-color:#000000;stop-opacity:0"/>
		</radialGradient>
		<ellipse class="st14" cx="921.5" cy="629.1" rx="204.8" ry="26.9"/>
		
			<linearGradient id="S1_13_" gradientUnits="userSpaceOnUse" x1="816.5172" y1="-1157.5563" x2="1219.9374" y2="-1145.4181" gradientTransform="matrix(1 0 0 1 0 1680)">
			<stop  offset="0" style="stop-color:#5287CD"/>
			<stop  offset="0.2824" style="stop-color:#5991DC"/>
			<stop  offset="0.2863" style="stop-color:#53A6EA"/>
			<stop  offset="0.6275" style="stop-color:#78C7F1"/>
			<stop  offset="0.8118" style="stop-color:#8FDAF7"/>
			<stop  offset="0.8784" style="stop-color:#8DD8F6"/>
			<stop  offset="1" style="stop-color:#6EBEEF"/>
		</linearGradient>
		<path id="S1_4_" class="st15" d="M1211,437.5c-0.1,0-566.1,0-566.2,0l0.5,83c0,0,283.2,102.2,283.3,102.2
			c0,0,283.2-102.1,283.3-102.1C1211.8,520.5,1211,437.5,1211,437.5z"/>
		
			<linearGradient id="S1_2_9_" gradientUnits="userSpaceOnUse" x1="-2642.1304" y1="1836.3508" x2="-2641.7942" y2="1836.3331" gradientTransform="matrix(825.022 0 0 -298.659 2180636.75 548879.5625)">
			<stop  offset="0" style="stop-color:#5ED3FD"/>
			<stop  offset="1" style="stop-color:#8CE6FC"/>
		</linearGradient>
		<path id="S1_2_3_" class="st16" d="M930.4,336.5l-285.5,101c0,0,284.5,103.9,284.5,104L1211,437.5
			C1211,437.5,930.4,336.5,930.4,336.5z"/>
		<path id="S1_2_2_3_" class="st17" d="M928,393.1L810.8,437l119.1,45.8l118-45.8C1047.8,437,928.1,393.1,928,393.1z"/>
		<path id="S2_3_" class="st18" d="M927.8,393.3c0,23.2,0,46.3,0,69.4c0,6.4,0,12.8,0,19.2c0.8,0.3,1.4,0.5,2.2,0.8
			c39.5-15.3,78.6-30.5,118-45.8c-39.7-14.7-79.9-29.2-119.8-43.8C928,393.2,927.9,393.2,927.8,393.3z"/>
		<path id="S3_3_" class="st3" d="M936,480.4c-1.3-2-3.8-3.5-7.3-3.5c-3,0-5.4,1.1-6.7,2.7c2.7,1,5.4,2.1,8,3.1
			C931.9,482,933.9,481.2,936,480.4z"/>
	</g>
	<g id="Layer_2_1_">
		
			<radialGradient id="SVGID_4_" cx="466.34" cy="-7030.3398" r="93.9397" gradientTransform="matrix(1.393 0 0 0.2185 279.9946 1952.1245)" gradientUnits="userSpaceOnUse">
			<stop  offset="2.814647e-02" style="stop-color:#000000;stop-opacity:0.4"/>
			<stop  offset="1" style="stop-color:#000000;stop-opacity:0"/>
		</radialGradient>
		<ellipse class="st19" cx="929.6" cy="416.1" rx="169" ry="22.9"/>
		
			<linearGradient id="S1_14_" gradientUnits="userSpaceOnUse" x1="839.3563" y1="-1358.666" x2="1172.1479" y2="-1357.2499" gradientTransform="matrix(1 0 0 1 0 1680)">
			<stop  offset="0.2667" style="stop-color:#2AADD7"/>
			<stop  offset="0.2745" style="stop-color:#2AB6E3"/>
			<stop  offset="0.6275" style="stop-color:#35C4E8"/>
			<stop  offset="0.8118" style="stop-color:#00E7F2"/>
			<stop  offset="0.8784" style="stop-color:#00E9F3"/>
			<stop  offset="1" style="stop-color:#34C0E4"/>
		</linearGradient>
		<path id="S1_5_" class="st20" d="M1178.5,236.3c-0.1,0-499.7-2.7-499.8-2.7l2.3,85.6l247.6,89.6c0,0,248.5-91.3,248.6-91.3
			C1177.2,317.5,1178.5,236.3,1178.5,236.3z"/>
		
			<linearGradient id="S1_2_10_" gradientUnits="userSpaceOnUse" x1="-2641.8157" y1="1836.6637" x2="-2641.4795" y2="1836.6466" gradientTransform="matrix(728.283 0 0 -272.535 1924811.5 500787.125)">
			<stop  offset="0" style="stop-color:#36DBF9"/>
			<stop  offset="1" style="stop-color:#4EEAFD"/>
		</linearGradient>
		<path id="S1_2_4_" class="st21" d="M929.7,140.5l-251,93.1l251.6,93.9c0,0,248.1-91.3,248.1-91.3
			C1178.4,236.3,929.7,140.5,929.7,140.5z"/>
		<path id="S1_2_2_4_" class="st22" d="M929.1,196l-102.7,35.3l103.9,40.3l103.3-38.4C1033.6,233.1,929.1,196,929.1,196z"/>
		<path id="S2_4_" class="st23" d="M927.9,196.4c0,20.4,0,40.8,0,61.1c0,4.4,0,8.7,0,13.1c0.8,0.3,1.6,0.6,2.5,1
			c34.5-12.8,68.8-25.6,103.3-38.4C999,220.7,964,208.3,929.2,196C928.7,196.1,928.3,196.3,927.9,196.4z"/>
	</g>
	<g id="Layer_9">
		<path id="S1_6_" class="st24" d="M656.3,249.9C612.4,190.4,524.6,71.4,524.6,71.4h-78.4"/>
		<path id="S2_5_" class="st25" d="M446.6,61.5c5.4,0,9.8,4.4,9.8,9.8c0,5.4-4.4,9.8-9.8,9.8c-5.4,0-9.8-4.4-9.8-9.8
			C436.8,65.9,441.2,61.5,446.6,61.5z"/>
		<path id="S1_2_5_" class="st26" d="M586.3,668.2c-43.9-59.5-131.7-178.5-131.7-178.5h-78.4"/>
		<path id="S2_2" class="st27" d="M376.7,479.8c5.4,0,9.8,4.4,9.8,9.8s-4.4,9.8-9.8,9.8s-9.8-4.4-9.8-9.8S371.2,479.8,376.7,479.8z"
			/>
		<path id="S1_2_2_5_" class="st28" d="M525.6,1073.4C481.7,1013.9,393.9,895,393.9,895h-78.4"/>
		<path id="S2_2_2" class="st29" d="M315.9,885.1c5.4,0,9.8,4.4,9.8,9.8c0,5.4-4.4,9.8-9.8,9.8s-9.8-4.4-9.8-9.8
			C306.1,889.5,310.5,885.1,315.9,885.1z"/>
		<path id="S1_2_2_2" class="st30" d="M1316.3,891.5c60,0,180.1,0,180.1,0"/>
		<path id="S2_2_2_2" class="st31" d="M1495.9,881.6c-5.4,0-9.8,4.4-9.8,9.8s4.4,9.8,9.8,9.8c5.4,0,9.8-4.4,9.8-9.8
			S1501.4,881.6,1495.9,881.6z"/>
		<path id="S1_2_2_2_2" class="st32" d="M1250,485.6c67.9,0,203.8,0,203.8,0"/>
		<path id="S2_2_2_2_2" class="st33" d="M1453.3,475.7c-5.4,0-9.8,4.4-9.8,9.8s4.4,9.8,9.8,9.8c5.4,0,9.8-4.4,9.8-9.8
			S1458.7,475.7,1453.3,475.7z"/>
	</g>
	
		<radialGradient id="SVGID_5_" cx="-150.1212" cy="-6160.8887" r="122.2074" gradientTransform="matrix(2.9867 0 0 0.2724 1374.3364 3102.3459)" gradientUnits="userSpaceOnUse">
		<stop  offset="2.814647e-02" style="stop-color:#000000;stop-opacity:0.4"/>
		<stop  offset="1" style="stop-color:#000000;stop-opacity:0"/>
	</radialGradient>
	<ellipse class="st34" cx="926" cy="1424" rx="425.9" ry="38.1"/>
</g>
<g id="Layer_3_1_" class="st35">
	<g class="st36">
		<g>
			<path id="S1_7_" class="st37" d="M-140.3-198.8c-4.8,0-9.6,0-14.4,0c0,11.7,0,23.4,0,35.1c0,12.5-4.7,17.5-13,17.5
				c-8.1,0-12.9-4.9-12.9-16.9c0-11.9,0-23.8,0-35.8c-4.8,0-9.6,0-14.4,0c0,11.9,0,23.9,0,35.8c0,21.5,9.8,27.7,27.3,27.7
				c17.8,0,27.4-6.1,27.4-28C-140.3-175-140.3-186.9-140.3-198.8z"/>
			<path id="S2_6_" class="st37" d="M-86.4-194.7c-7.9-4.1-12.2-4.7-19.8-4.7c-13.5,0-21.1,6.6-21.1,17.5c0,8.5,5.5,14.6,19.6,22.3
				c5,2.8,6.9,4.9,6.9,8c0,3.7-2.6,6.1-6.9,6.1s-10.4-1.3-18.6-6.3c-1.1,3.5-2.3,7.1-3.4,10.6c6.8,4,15.9,5.8,22,5.8
				c15.2,0,21.5-7.7,21.5-17.9c0-8.7-5.1-13.1-17.6-20.3c-6.3-3.6-8.9-5.7-8.9-8.8c0-4.4,3.2-6.6,8.5-6.6c5.2,0,9,1.3,15.3,5.1
				C-88.1-187.5-87.2-191.1-86.4-194.7z"/>
			<path id="S3_4_" class="st37" d="M-37.1-146.7c-8,0-16,0-24,0c0-5.4,0-10.8,0-16.3c7.1,0,14.2,0,21.4,0c0-3.6,0-7.2,0-10.8
				c-7.1,0-14.2,0-21.4,0c0-4.7,0-9.4,0-14.1c8,0,16,0,24,0c0-3.6,0-7.2,0-10.8c-12.5,0-25.1,0-37.6,0c0,20.8,0,41.6,0,62.4
				c12.5,0,25.1,0,37.6,0C-37.1-139.8-37.1-143.3-37.1-146.7z"/>
			<path id="S4" class="st37" d="M-11.8-173c0-5.2,0-10.3,0-15.5c1.9-0.2,3.5-0.3,4.6-0.3c8.8,0,12.8,2.9,12.8,8.2
				c0,4.8-4.7,7.9-12.3,7.9C-7.7-172.7-11.8-173-11.8-173 M24.7-136.4c-7.8-9.5-15.7-19-23.5-28.5c11.9-0.3,19.3-6.4,19.3-16
				c0-11.8-8.2-18.1-27.6-18.1c-2.5,0-13.9,0.3-19,0.6c0,20.6,0,41.3,0,61.9c4.8,0,9.6,0,14.4,0c0-8.3,0-16.7,0-25
				c6.5,8.3,12.9,16.7,19.4,25C13.3-136.4,19-136.4,24.7-136.4z"/>
			<path id="S5" class="st37" d="M91.5-163.5c-4.7,0-9.4,0-14.1,0c2.3-6.4,4.6-12.9,6.9-19.3C86.7-176.4,89.1-170,91.5-163.5
				 M116.4-136.4c-8.1-20.8-16.1-41.6-24.2-62.4c-4.7,0-9.4,0-14.1,0c-8.3,20.8-16.6,41.6-24.8,62.4c4.6,0,9.2,0,13.9,0
				c2.2-5.7,4.5-11.4,6.7-17.2c7,0,14.1,0,21.1,0c2.2,5.7,4.3,11.4,6.5,17.2C106.4-136.4,111.4-136.4,116.4-136.4z"/>
			<path id="S6" class="st37" d="M138.7-172.9c0-5,0-10.1,0-15.1c2-0.2,2.9-0.2,4.4-0.2c9.6,0,12.2,2.8,12.2,7.9
				c0,5.3-3.8,7.6-11.4,7.6C141.7-172.7,140.9-172.7,138.7-172.9 M124.3-198.6c0,20.7,0,41.5,0,62.2c4.8,0,9.6,0,14.4,0
				c0-8.7,0-17.5,0-26.2c3.8,0.3,5.2,0.4,8,0.4c15.6,0,24-7.2,24-18c0-13.1-10.1-18.9-29.2-18.9
				C136.7-199.1,124.3-198.6,124.3-198.6z"/>
			<path id="S7" class="st37" d="M196.1-172.9c0-5,0-10.1,0-15.1c2-0.2,2.9-0.2,4.4-0.2c9.6,0,12.2,2.8,12.2,7.9
				c0,5.3-3.8,7.6-11.4,7.6C199-172.7,198.3-172.7,196.1-172.9 M181.7-198.6c0,20.7,0,41.5,0,62.2c4.8,0,9.6,0,14.4,0
				c0-8.7,0-17.5,0-26.2c3.8,0.3,5.2,0.4,8,0.4c15.6,0,24-7.2,24-18c0-13.1-10.1-18.9-29.2-18.9
				C194.1-199.1,181.7-198.6,181.7-198.6z"/>
		</g>
		<g>
			<path id="S1_8_" class="st38" d="M-179.8-37.1c-2.7,0-5.4,0-8.2,0c1.3-3.6,2.6-7.1,3.9-10.7C-182.7-44.2-181.3-40.6-179.8-37.1
				 M-172.9-26.2c-3.2-8.2-6.5-16.5-9.7-24.7c-0.9,0-1.7,0-2.6,0c-3.2,8.2-6.4,16.5-9.6,24.7c0.9,0,1.8,0,2.7,0
				c1.1-2.8,2.2-5.6,3.3-8.4c3.3,0,6.7,0,10,0c1.1,2.8,2.2,5.6,3.3,8.4C-174.7-26.2-173.8-26.2-172.9-26.2z"/>
			<path id="S2_7_" class="st38" d="M-163.1-28.3c-1,0-2,0-2.9,0c0-6.9,0-13.7,0-20.6c1,0,2,0,2.9,0c0-0.7,0-1.4,0-2.1
				c-2.9,0-5.7,0-8.6,0c0,0.7,0,1.4,0,2.1c1,0,2,0,2.9,0c0,6.9,0,13.7,0,20.6c-1,0-2,0-2.9,0c0,0.7,0,1.4,0,2.1c2.9,0,5.7,0,8.6,0
				C-163.1-26.9-163.1-27.6-163.1-28.3z"/>
			<path id="S3_5_" class="st38" d="M-153.5-35.3c-2.7,0-5.4,0-8.1,0c0,0.7,0,1.4,0,2.1c2.7,0,5.4,0,8.1,0
				C-153.5-33.9-153.5-34.6-153.5-35.3z"/>
			<path id="S4_1_" class="st38" d="M-148-29.7c0-1.2,0-2.4,0-3.6c0-4.1,1.8-6.7,4.5-6.7c2.3,0,3.6,1.9,3.6,5.2
				c0,3.7-2.2,6.5-4.8,6.5C-145.7-28.1-147.1-28.7-148-29.7 M-143.2-42.3c-2,0-3.6,0.8-5,2.7c-0.1-1.2-0.2-1.5-0.4-2.2
				c-0.8,0-1.7,0-2.5,0c0.4,1.3,0.7,3.3,0.7,4.3c0,7.2,0,14.4,0,21.5c0.8,0,1.7,0,2.5,0c0-3.8,0-7.5,0-11.3c1,0.9,2.4,1.2,3.9,1.2
				c4.2,0,6.9-3.4,6.9-8.8C-137.2-39.4-139.6-42.3-143.2-42.3z"/>
			<path id="S5_1_" class="st38" d="M-126.4-40.1c2.8,0,4.3,2.1,4.3,5.7c0,3.9-1.7,6.4-4.5,6.4s-4.3-2-4.3-5.7
				C-130.8-37.8-129.2-40.1-126.4-40.1 M-126.5-25.7c4.3,0,7-3.3,7-8.5c0-5-2.6-8-6.9-8c-4.4,0-7,3.3-7,8.5
				C-133.4-28.8-130.8-25.7-126.5-25.7z"/>
			<path id="S6_1_" class="st38" d="M-96.9-41.8c-0.9,3.1-1.7,6.3-2.6,9.4c-0.3,1.4-0.7,2.9-1,4.3c-0.4-1.5-0.7-2.9-1.1-4.4
				c-0.9-3.1-1.8-6.2-2.7-9.3c-0.8,0-1.5,0-2.3,0c-0.8,3-1.6,6-2.4,9c-0.4,1.6-0.8,3.1-1.2,4.7c-0.4-1.6-0.8-3.1-1.3-4.7
				c-0.9-3-1.7-6-2.6-9.1c-0.8,0-1.7,0-2.5,0c1.5,4.8,3,9.7,4.5,14.5c0.3,1.1,1,1.4,1.8,1.4c1.1,0,1.8-0.3,2.2-1.7
				c0.6-2.5,1.3-4.9,1.9-7.4c0.4-1.3,0.8-3.3,0.8-3.3s0.4,1.7,0.8,3.2c0.8,2.5,1.5,5.1,2.3,7.6c0.3,1.1,1,1.5,1.9,1.5
				s1.5-0.3,1.8-1.5c1.5-4.8,2.9-9.6,4.4-14.4C-95.1-41.8-96-41.8-96.9-41.8z"/>
			<path id="S7_1_" class="st38" d="M-84.1-40.1c1.5,0,2.4,1.1,2.4,2.3c0,1.9-2.1,3.2-5.3,3.2c-0.6,0-1,0-1.7-0.1
				C-88.4-37.4-86.5-40.1-84.1-40.1 M-80.2-27.1c0-0.8,0-1.6,0-2.4c-1.5,1-2.9,1.5-4.2,1.5c-2.4,0-3.9-1.7-4.2-4.5
				c0.8,0.1,1.1,0,1.7,0c5,0,7.9-1.9,7.9-5.2c0-2.8-1.9-4.5-5.1-4.5c-4.2,0-7.1,3.6-7.1,8.8c0,4.6,2.5,7.5,6.5,7.5
				C-83-25.8-81.7-26.2-80.2-27.1z"/>
			<path id="S8" class="st38" d="M-72.7-32.4c0-4.4,1.9-7.3,4.7-7.3c0.5,0,0.7,0.1,1.4,0.2c0-0.7,0.1-1.5,0.1-2.2
				c-0.7-0.4-1-0.4-1.8-0.4c-2.1,0-3.4,1.1-4.6,3.7c0-1.8-0.1-2.3-0.4-3.4c-0.8,0-1.6,0-2.4,0c0.5,1.8,0.6,2.9,0.6,5.1
				c0,3.5,0,7,0,10.4c0.8,0,1.6,0,2.4,0C-72.7-28.3-72.7-30.3-72.7-32.4z"/>
			<path id="S9" class="st38" d="M-56.6-40.1c1.5,0,2.4,1.1,2.4,2.3c0,1.9-2.1,3.2-5.3,3.2c-0.6,0-1,0-1.7-0.1
				C-60.9-37.4-59-40.1-56.6-40.1 M-52.7-27.1c0-0.8,0-1.6,0-2.4c-1.5,1-2.9,1.5-4.2,1.5c-2.4,0-3.9-1.7-4.2-4.5
				c0.9,0.1,1.1,0,1.7,0c5,0,7.9-1.9,7.9-5.2c0-2.8-1.9-4.5-5.1-4.5c-4.2,0-7.1,3.6-7.1,8.8c0,4.6,2.5,7.5,6.5,7.5
				C-55.5-25.8-54.2-26.2-52.7-27.1z"/>
			<path id="S10" class="st38" d="M-37.6-39.4c0,1.1,0,2.3,0,3.4c0,5.8-1.7,7.7-4.5,7.7c-2.1,0-3.4-1.9-3.4-4.8
				c0-4.1,2.1-6.9,5.2-6.9C-39.3-40-38.7-39.8-37.6-39.4 M-37.6-41.6c-1.4-0.5-2-0.6-3.3-0.6c-4.3,0-7.3,3.7-7.3,9
				c0,4.5,2.4,7.5,6,7.5c2.1,0,3.8-1,4.7-2.8c0.3,2.1,1.5,2.7,2.9,2.7c0.8,0,1.4-0.3,2.1-0.8c0-0.6,0-1.3,0-1.9
				c-0.6,0.4-1,0.5-1.4,0.5c-1.3,0-1.3-0.5-1.3-3.5c0-6.5,0-12.9,0-19.4c-0.8,0-1.7,0-2.5,0C-37.6-47.9-37.6-44.7-37.6-41.6z"/>
			<path id="S11" class="st38" d="M-9.8-41.1c-1.5-1-3-1.2-4.5-1.2c-3,0-4.8,1.6-4.8,4c0,2.1,1.2,3.3,4.6,5.5
				c1.6,1.1,2.3,1.8,2.3,2.8c0,1.4-0.9,2.2-2.7,2.2c-1.4,0-3-0.6-4.4-1.6c-0.2,0.7-0.4,1.4-0.5,2.2c1.6,1.1,3.2,1.5,5.1,1.5
				c3.1,0,5.1-1.7,5.1-4.3c0-2.3-1-3.3-3.5-5c-2.2-1.5-3.4-2.2-3.4-3.3c0-1.4,1-1.8,2.2-1.8s2.7,0.3,4.2,1.3
				C-10-39.5-9.9-40.3-9.8-41.1z"/>
			<path id="S12" class="st38" d="M1-40.1c2.8,0,4.3,2.1,4.3,5.7c0,3.9-1.7,6.4-4.5,6.4s-4.3-2-4.3-5.7C-3.4-37.8-1.8-40.1,1-40.1
				 M0.9-25.7c4.3,0,7-3.3,7-8.5c0-5-2.6-8-6.9-8c-4.4,0-7,3.3-7,8.5C-6-28.8-3.4-25.7,0.9-25.7z"/>
			<path id="S13" class="st38" d="M13.4-41.8c-1,0-2.1,0-3.1,0c0,0.7,0,1.4,0,2.1c1,0,2.1,0,3.1,0c0,5,0,9.9,0,14.9
				c0,6.2-1.6,6.9-3.5,6.9c-0.8,0-1.5-0.2-2.7-0.8C7.1-18,7.1-17.3,7-16.6c1.2,0.6,2,0.8,3.1,0.8c3.9,0,5.8-2.2,5.8-8.3
				c0-5.2,0-10.4,0-15.5c1.3,0,2.5,0,3.8,0c0-0.7,0-1.4,0-2.1c-1.3,0-2.5,0-3.8,0c0-0.4,0-0.7,0-1.1c0-4.1,0.8-5.8,2.8-5.8
				c0.7,0,1.1,0.1,1.9,0.6c0-0.8,0.1-1.5,0.1-2.3c-1-0.4-1.4-0.5-2.3-0.5c-3.4,0-5,2.4-5,7.6C13.4-42.8,13.4-42.3,13.4-41.8z"/>
			<path id="S14" class="st38" d="M30.5-29.1c-0.8,0.6-2,1.1-2.7,1.1c-1.4,0-2.1-1-2.1-2.9c0-2.9,0-5.9,0-8.8c1.5,0,2.9,0,4.4,0
				c0-0.7,0-1.4,0-2.1c-1.5,0-2.9,0-4.4,0c0-1.1,0-2.2,0-3.4c-0.8,0-1.7,0-2.5,0c0,1.1,0,2.2,0,3.4c-0.7,0-1.3,0-2,0
				c0,0.7,0,1.4,0,2.1c0.7,0,1.3,0,2,0c0,2.9,0,5.9,0,8.8c0,3.4,1.5,5,4.3,5c1.2,0,2.2-0.4,3-1C30.5-27.6,30.5-28.3,30.5-29.1z"/>
			<path id="S15" class="st38" d="M52.4-41.8c-0.9,3.1-1.7,6.3-2.6,9.4c-0.3,1.4-0.7,2.9-1,4.3c-0.4-1.5-0.7-2.9-1.1-4.4
				c-0.9-3.1-1.8-6.2-2.7-9.3c-0.8,0-1.5,0-2.3,0c-0.8,3-1.6,6-2.4,9c-0.4,1.6-0.8,3.1-1.2,4.7c-0.4-1.6-0.9-3.1-1.3-4.7
				c-0.9-3-1.7-6-2.6-9.1c-0.8,0-1.7,0-2.5,0c1.5,4.8,3,9.7,4.5,14.5c0.3,1.1,1,1.4,1.8,1.4c1.1,0,1.8-0.3,2.2-1.7
				c0.6-2.5,1.3-4.9,1.9-7.4c0.4-1.3,0.8-3.3,0.8-3.3s0.4,1.7,0.8,3.2c0.8,2.5,1.5,5.1,2.3,7.6c0.3,1.1,1,1.5,1.9,1.5
				s1.5-0.3,1.8-1.5c1.5-4.8,2.9-9.6,4.4-14.4C54.2-41.8,53.3-41.8,52.4-41.8z"/>
			<path id="S16" class="st38" d="M68.4-39.4c0,1.5,0,3,0,4.5c0,4.1-1.7,6.7-4.3,6.7c-2.2,0-3.3-1.7-3.3-4.7c0-4.4,2-6.9,5.4-6.9
				C67.1-39.8,67.4-39.7,68.4-39.4 M70.9-41.4c-1.8-0.6-2.7-0.8-4.5-0.8c-5,0-8.2,3.5-8.2,8.8c0,4.9,2.4,7.5,5.6,7.5
				c1.9,0,3.5-1,4.7-2.9c0.2,1.8,1.3,2.9,2.9,2.9c0.9,0,1.3-0.1,2.1-0.8c0-0.6,0-1.3,0-1.9c-2.3,0.5-2.7-0.1-2.7-1.5
				C70.9-33.8,70.9-37.6,70.9-41.4 M73.6-28.5c-0.5,0.4-0.8,0.5-1.2,0.5L73.6-28.5z"/>
			<path id="S17" class="st38" d="M78.8-32.4c0-4.4,1.9-7.3,4.7-7.3c0.5,0,0.7,0.1,1.4,0.2c0-0.7,0.1-1.5,0.1-2.2
				c-0.7-0.4-1-0.4-1.8-0.4c-2.1,0-3.4,1.1-4.6,3.7c0-1.8-0.1-2.3-0.4-3.4c-0.8,0-1.6,0-2.4,0c0.5,1.8,0.6,2.9,0.6,5.1
				c0,3.5,0,7,0,10.4c0.8,0,1.6,0,2.4,0C78.8-28.3,78.8-30.3,78.8-32.4z"/>
			<path id="S18" class="st38" d="M95-40.1c1.5,0,2.4,1.1,2.4,2.3c0,1.9-2.1,3.2-5.3,3.2c-0.6,0-1,0-1.7-0.1
				C90.7-37.4,92.6-40.1,95-40.1 M98.8-27.1c0-0.8,0-1.6,0-2.4c-1.5,1-2.9,1.5-4.2,1.5c-2.4,0-3.9-1.7-4.2-4.5c0.8,0.1,1.1,0,1.7,0
				c5,0,7.9-1.9,7.9-5.2c0-2.8-1.9-4.5-5.1-4.5c-4.2,0-7.1,3.6-7.1,8.8c0,4.6,2.5,7.5,6.5,7.5C96-25.8,97.3-26.2,98.8-27.1z"/>
			<path id="S19" class="st38" d="M124.6-39.4c0,1.5,0,3,0,4.5c0,4.1-1.7,6.7-4.3,6.7c-2.2,0-3.3-1.7-3.3-4.7c0-4.4,2-6.9,5.4-6.9
				C123.2-39.8,123.6-39.7,124.6-39.4 M127-41.4c-1.8-0.6-2.7-0.8-4.5-0.8c-5,0-8.2,3.5-8.2,8.8c0,4.9,2.4,7.5,5.6,7.5
				c1.9,0,3.5-1,4.7-2.9c0.2,1.8,1.3,2.9,2.9,2.9c0.9,0,1.3-0.1,2.1-0.8c0-0.6,0-1.3,0-1.9c-2.3,0.5-2.7-0.1-2.7-1.5
				C127-33.8,127-37.6,127-41.4 M129.7-28.5c-0.5,0.4-0.8,0.5-1.2,0.5L129.7-28.5z"/>
			<path id="S20" class="st38" d="M143-29.4c-1.7,1-2.8,1.3-4.2,1.3c-2.5,0-4.2-2.2-4.2-5.4c0-3.9,2-6.3,5-6.3
				c1.2,0,1.7,0.1,3.1,0.8c0.1-0.8,0.3-1.6,0.4-2.3c-1.6-0.7-2.2-0.9-3.8-0.9c-4.6,0-7.4,3.4-7.4,8.8c0,4.8,2.5,7.6,6.8,7.6
				c1.5,0,2.8-0.4,4.3-1.2C143.1-27.8,143-28.6,143-29.4z"/>
			<path id="S21" class="st38" d="M149.2-32.4c0-4.4,1.9-7.3,4.7-7.3c0.5,0,0.7,0.1,1.4,0.2c0-0.7,0.1-1.5,0.1-2.2
				c-0.7-0.4-1-0.4-1.8-0.4c-2.1,0-3.4,1.1-4.6,3.7c0-1.8-0.1-2.3-0.4-3.4c-0.8,0-1.6,0-2.4,0c0.5,1.8,0.6,2.9,0.6,5.1
				c0,3.5,0,7,0,10.4c0.8,0,1.6,0,2.4,0C149.2-28.3,149.2-30.3,149.2-32.4z"/>
			<path id="S22" class="st38" d="M165.2-40.1c2.8,0,4.3,2.1,4.3,5.7c0,3.9-1.7,6.4-4.5,6.4s-4.3-2-4.3-5.7
				C160.8-37.8,162.4-40.1,165.2-40.1 M165.1-25.7c4.3,0,7-3.3,7-8.5c0-5-2.6-8-6.9-8c-4.4,0-7,3.3-7,8.5
				C158.2-28.8,160.8-25.7,165.1-25.7z"/>
			<path id="S23" class="st38" d="M185.2-41.1c-1.5-1-3-1.2-4.5-1.2c-3,0-4.8,1.6-4.8,4c0,2.1,1.2,3.3,4.6,5.5
				c1.6,1.1,2.3,1.8,2.3,2.8c0,1.4-0.9,2.2-2.7,2.2c-1.4,0-3-0.6-4.4-1.6c-0.2,0.7-0.4,1.4-0.5,2.2c1.6,1.1,3.2,1.5,5.1,1.5
				c3.1,0,5.1-1.7,5.1-4.3c0-2.3-1-3.3-3.5-5c-2.2-1.5-3.4-2.2-3.4-3.3c0-1.4,1-1.8,2.2-1.8s2.7,0.3,4.2,1.3
				C185-39.5,185.1-40.3,185.2-41.1z"/>
			<path id="S24" class="st38" d="M198.4-41.1c-1.5-1-3-1.2-4.5-1.2c-3,0-4.8,1.6-4.8,4c0,2.1,1.2,3.3,4.6,5.5
				c1.6,1.1,2.3,1.8,2.3,2.8c0,1.4-0.9,2.2-2.7,2.2c-1.4,0-3-0.6-4.4-1.6c-0.2,0.7-0.4,1.4-0.5,2.2c1.6,1.1,3.2,1.5,5.1,1.5
				c3.1,0,5.1-1.7,5.1-4.3c0-2.3-1-3.3-3.5-5c-2.2-1.5-3.4-2.2-3.4-3.3c0-1.4,1-1.8,2.2-1.8s2.7,0.3,4.2,1.3
				C198.1-39.5,198.2-40.3,198.4-41.1z"/>
			<path id="S25" class="st38" d="M219.1-26.7c0-0.6,0-1.3,0-1.9c-0.9,0.5-1.2,0.6-1.7,0.6c-1,0-1.4-0.8-1.4-2.6c0-3.7,0-7.4,0-11.1
				c-0.8,0-1.7,0-2.5,0c0,3.7,0,7.5,0,11.2c0,3.2,1,4.6,3,4.6C217.5-25.9,218.1-26.1,219.1-26.7 M215-45c0.8,0,1.5-0.7,1.5-1.5
				c0-0.9-0.7-1.7-1.7-1.7c-0.8,0-1.5,0.7-1.5,1.7C213.3-45.6,214.1-45,215-45z"/>
			<path id="S26" class="st38" d="M223.9-32.9c0-4.1,1.9-6.9,4.6-6.9c1.5,0,2.3,1.3,2.3,3.6c0,2.1,0,4.1,0,6.2c0,2.5,1.2,4,3.1,4
				c1,0,1.7-0.2,2.4-0.9c0-0.6,0-1.2,0-1.8c-0.8,0.5-1.1,0.6-1.6,0.6c-0.9,0-1.5-0.8-1.5-2.2c0-2,0-4,0-6c0-3.8-1.8-5.9-4.8-5.9
				c-2,0-3.4,0.8-4.9,3c-0.2-1.6-0.2-1.8-0.6-2.6c-0.8,0-1.6,0-2.4,0c0.4,1.1,0.7,3.3,0.7,5c0,3.5,0,7.1,0,10.6c0.8,0,1.7,0,2.5,0
				C223.9-28.5,223.9-30.7,223.9-32.9z"/>
			<path id="S27" class="st38" d="M249.3-39.4c0,1.1,0,2.3,0,3.4c0,5.8-1.7,7.7-4.5,7.7c-2.1,0-3.4-1.9-3.4-4.8
				c0-4.1,2.1-6.9,5.2-6.9C247.6-40,248.2-39.8,249.3-39.4 M249.3-41.6c-1.4-0.5-2-0.6-3.3-0.6c-4.3,0-7.3,3.7-7.3,9
				c0,4.5,2.4,7.5,6,7.5c2.1,0,3.8-1,4.7-2.8c0.3,2.1,1.5,2.7,2.9,2.7c0.8,0,1.4-0.3,2.1-0.8c0-0.6,0-1.3,0-1.9
				c-0.6,0.4-1,0.5-1.4,0.5c-1.3,0-1.3-0.5-1.3-3.5c0-6.5,0-12.9,0-19.4c-0.8,0-1.7,0-2.5,0C249.3-47.9,249.3-44.7,249.3-41.6z"/>
			<path id="S28" class="st38" d="M267-33.6c0,3.4-1.9,5.6-4.3,5.6c-2.1,0-2.7-1.4-2.7-4.6c0-3.6,0.1-5.6-0.2-9.2
				c-0.8,0-1.7,0-2.5,0c0.5,3.7,0.4,5.7,0.4,9.5c0,4.6,1.7,6.4,5,6.4c1.9,0,3.5-0.8,4.7-2.7c0.3,1.8,1.2,2.6,2.9,2.6
				c0.8,0,1.5-0.2,2.4-0.8c0-0.6,0-1.2,0-1.9c-0.9,0.5-1.2,0.6-1.6,0.6c-0.9,0-1.4-0.8-1.4-2.3c0-3.8,0-7.6,0-11.5
				c-0.8,0-1.7,0-2.5,0C267-39.1,267-36.3,267-33.6z"/>
			<path id="S29" class="st38" d="M283.9-41.1c-1.5-1-3-1.2-4.5-1.2c-3,0-4.8,1.6-4.8,4c0,2.1,1.2,3.3,4.6,5.5
				c1.6,1.1,2.3,1.8,2.3,2.8c0,1.4-0.9,2.2-2.7,2.2c-1.4,0-3-0.6-4.4-1.6c-0.2,0.7-0.4,1.4-0.5,2.2c1.6,1.1,3.2,1.5,5.1,1.5
				c3.1,0,5.1-1.7,5.1-4.3c0-2.3-1-3.3-3.5-5c-2.2-1.5-3.4-2.2-3.4-3.3c0-1.4,1-1.8,2.2-1.8s2.7,0.3,4.2,1.3
				C283.7-39.5,283.8-40.3,283.9-41.1z"/>
			<path id="S30" class="st38" d="M296-29.1c-0.8,0.6-2,1.1-2.7,1.1c-1.4,0-2.1-1-2.1-2.9c0-2.9,0-5.9,0-8.8c1.5,0,2.9,0,4.4,0
				c0-0.7,0-1.4,0-2.1c-1.5,0-2.9,0-4.4,0c0-1.1,0-2.2,0-3.4c-0.8,0-1.7,0-2.5,0c0,1.1,0,2.2,0,3.4c-0.7,0-1.3,0-2,0
				c0,0.7,0,1.4,0,2.1c0.7,0,1.3,0,2,0c0,2.9,0,5.9,0,8.8c0,3.4,1.5,5,4.3,5c1.2,0,2.2-0.4,3-1C296-27.6,296-28.3,296-29.1z"/>
			<path id="S31" class="st38" d="M302.1-32.4c0-4.4,1.9-7.3,4.7-7.3c0.5,0,0.7,0.1,1.4,0.2c0-0.7,0.1-1.5,0.1-2.2
				c-0.7-0.4-1-0.4-1.8-0.4c-2.1,0-3.4,1.1-4.6,3.7c0-1.8-0.1-2.3-0.4-3.4c-0.8,0-1.6,0-2.4,0c0.5,1.8,0.6,2.9,0.6,5.1
				c0,3.5,0,7,0,10.4c0.8,0,1.6,0,2.4,0C302.1-28.3,302.1-30.3,302.1-32.4z"/>
			<path id="S32" class="st38" d="M317.1-26.7c0-0.6,0-1.3,0-1.9c-0.9,0.5-1.2,0.6-1.7,0.6c-1,0-1.4-0.8-1.4-2.6c0-3.7,0-7.4,0-11.1
				c-0.8,0-1.7,0-2.5,0c0,3.7,0,7.5,0,11.2c0,3.2,1,4.6,3,4.6C315.5-25.9,316.2-26.1,317.1-26.7 M313.1-45c0.8,0,1.5-0.7,1.5-1.5
				c0-0.9-0.7-1.7-1.7-1.7c-0.8,0-1.5,0.7-1.5,1.7C311.4-45.6,312.2-45,313.1-45z"/>
			<path id="S33" class="st38" d="M326.2-40.1c1.5,0,2.4,1.1,2.4,2.3c0,1.9-2.1,3.2-5.3,3.2c-0.6,0-1,0-1.7-0.1
				C321.9-37.4,323.8-40.1,326.2-40.1 M330.1-27.1c0-0.8,0-1.6,0-2.4c-1.5,1-2.9,1.5-4.2,1.5c-2.4,0-3.9-1.7-4.2-4.5
				c0.8,0.1,1.1,0,1.7,0c5,0,7.9-1.9,7.9-5.2c0-2.8-1.9-4.5-5.1-4.5c-4.2,0-7.1,3.6-7.1,8.8c0,4.6,2.5,7.5,6.5,7.5
				C327.3-25.8,328.6-26.2,330.1-27.1z"/>
			<path id="S34" class="st38" d="M343.9-41.1c-1.5-1-3-1.2-4.5-1.2c-3,0-4.8,1.6-4.8,4c0,2.1,1.2,3.3,4.6,5.5
				c1.6,1.1,2.3,1.8,2.3,2.8c0,1.4-0.9,2.2-2.7,2.2c-1.4,0-3-0.6-4.4-1.6c-0.2,0.7-0.4,1.4-0.5,2.2c1.6,1.1,3.2,1.5,5.1,1.5
				c3.1,0,5.1-1.7,5.1-4.3c0-2.3-1-3.3-3.5-5c-2.2-1.5-3.4-2.2-3.4-3.3c0-1.4,1-1.8,2.2-1.8s2.7,0.3,4.2,1.3
				C343.7-39.5,343.8-40.3,343.9-41.1z"/>
			<path id="S35" class="st38" d="M-159.5,7.1c-11.8,0-23.6,0-35.4,0c0,0.7,0,1.4,0,2.1c11.8,0,23.6,0,35.4,0
				C-159.5,8.5-159.5,7.8-159.5,7.1z"/>
			<path id="S36" class="st38" d="M-157,16.2c0.8,0,1.7,0,2.5,0c0-2.4,0-4.7,0-7.1c0-3.5,1.9-6.4,4.4-6.4c1.8,0,2.5,1,2.5,3.3
				c0,2.1,0,4.1,0,6.2c0,2.9,1.1,4.4,3.1,4.4c0.8,0,1.4-0.2,2.4-0.8c0-0.7,0-1.3,0-2c-0.8,0.5-1.1,0.7-1.6,0.7
				c-0.9,0-1.4-0.8-1.4-2.3c0-2,0-3.9,0-5.9c0-5.1-2.2-5.9-4.8-5.9c-1.9,0-3.5,0.9-4.7,2.7c0-3.8,0-7.7,0-11.5c-0.8,0-1.6,0-2.4,0
				C-157-0.3-157,8-157,16.2z"/>
			<path id="S37" class="st38" d="M-132.8,2.4c1.5,0,2.4,1.1,2.4,2.3c0,1.9-2.1,3.2-5.3,3.2c-0.6,0-1,0-1.7-0.1
				C-137.1,5-135.1,2.4-132.8,2.4 M-128.9,15.3c0-0.8,0-1.6,0-2.4c-1.5,1-2.9,1.5-4.2,1.5c-2.4,0-3.9-1.7-4.2-4.5
				c0.8,0.1,1.1,0,1.7,0c5,0,7.9-1.9,7.9-5.2c0-2.8-1.9-4.5-5.1-4.5c-4.2,0-7.1,3.6-7.1,8.8c0,4.6,2.5,7.5,6.5,7.5
				C-131.7,16.6-130.4,16.3-128.9,15.3z"/>
			<path id="S38" class="st38" d="M-114.1,3c0,1.5,0,3,0,4.5c0,4.1-1.7,6.7-4.3,6.7c-2.2,0-3.3-1.7-3.3-4.7c0-4.4,2-6.9,5.4-6.9
				C-115.4,2.7-115,2.7-114.1,3 M-111.6,1.1c-1.8-0.6-2.7-0.8-4.5-0.8c-5,0-8.2,3.5-8.2,8.8c0,4.9,2.4,7.5,5.6,7.5
				c1.9,0,3.5-1,4.7-2.9c0.2,1.8,1.3,2.9,2.9,2.9c0.9,0,1.3-0.1,2.1-0.8c0-0.6,0-1.3,0-1.9c-2.3,0.5-2.7-0.1-2.7-1.5
				C-111.6,8.7-111.6,4.9-111.6,1.1 M-108.9,13.9c-0.5,0.4-0.8,0.5-1.2,0.5L-108.9,13.9z"/>
			<path id="S39" class="st38" d="M-100.6,13.9c-0.8,0.5-1.2,0.7-1.6,0.7c-1,0-1.5-0.9-1.4-3.2c0-6.6,0-13.2,0-19.8
				c-0.8,0-1.7,0-2.5,0c0,6.6,0,13.3,0,19.9c0,4.2,1.4,5.2,3.2,5.2c1,0,1.4-0.1,2.3-0.8C-100.6,15.1-100.6,14.5-100.6,13.9z"/>
			<path id="S40" class="st38" d="M-90.4,13.4c-0.8,0.6-2,1.1-2.7,1.1c-1.4,0-2.1-1-2.1-2.9c0-2.9,0-5.9,0-8.8c1.5,0,2.9,0,4.4,0
				c0-0.7,0-1.4,0-2.1c-1.5,0-2.9,0-4.4,0c0-1.1,0-2.2,0-3.4c-0.8,0-1.7,0-2.5,0c0,1.1,0,2.2,0,3.4c-0.7,0-1.3,0-2,0
				c0,0.7,0,1.4,0,2.1c0.7,0,1.3,0,2,0c0,2.9,0,5.9,0,8.8c0,3.4,1.5,5,4.3,5c1.2,0,2.2-0.4,3-1C-90.4,14.9-90.4,14.1-90.4,13.4z"/>
			<path id="S41" class="st38" d="M-86.7,16.2c0.8,0,1.7,0,2.5,0c0-2.4,0-4.7,0-7.1c0-3.5,1.9-6.4,4.4-6.4c1.8,0,2.5,1,2.5,3.3
				c0,2.1,0,4.1,0,6.2c0,2.9,1.1,4.4,3.1,4.4c0.8,0,1.5-0.2,2.4-0.8c0-0.7,0-1.3,0-2c-0.8,0.5-1.1,0.7-1.6,0.7
				c-0.9,0-1.4-0.8-1.4-2.3c0-2,0-3.9,0-5.9c0-5.1-2.2-5.9-4.8-5.9c-1.9,0-3.5,0.9-4.7,2.7c0-3.8,0-7.7,0-11.5c-0.8,0-1.6,0-2.4,0
				C-86.7-0.3-86.7,8-86.7,16.2z"/>
			<path id="S42" class="st38" d="M-58.7,13.1c-1.7,1-2.8,1.3-4.2,1.3c-2.5,0-4.2-2.2-4.2-5.4c0-3.9,2-6.3,5-6.3
				c1.2,0,1.7,0.1,3.1,0.8c0.1-0.8,0.3-1.6,0.4-2.3c-1.6-0.7-2.2-0.9-3.8-0.9c-4.6,0-7.4,3.4-7.4,8.8c0,4.8,2.5,7.6,6.8,7.6
				c1.5,0,2.8-0.4,4.3-1.2C-58.5,14.7-58.6,13.9-58.7,13.1z"/>
			<path id="S43" class="st38" d="M-45,3c0,1.5,0,3,0,4.5c0,4.1-1.7,6.7-4.3,6.7c-2.2,0-3.3-1.7-3.3-4.7c0-4.4,2-6.9,5.4-6.9
				C-46.4,2.7-46,2.7-45,3 M-42.6,1.1c-1.8-0.6-2.7-0.8-4.5-0.8c-5,0-8.2,3.5-8.2,8.8c0,4.9,2.4,7.5,5.6,7.5c1.9,0,3.5-1,4.7-2.9
				c0.2,1.8,1.3,2.9,2.9,2.9c0.9,0,1.3-0.1,2.1-0.8c0-0.6,0-1.3,0-1.9c-2.3,0.5-2.7-0.1-2.7-1.5C-42.6,8.7-42.6,4.9-42.6,1.1
				 M-39.9,13.9c-0.5,0.4-0.8,0.5-1.2,0.5L-39.9,13.9z"/>
			<path id="S44" class="st38" d="M-34.6,10.1c0-4.4,1.9-7.3,4.7-7.3c0.5,0,0.7,0.1,1.4,0.2c0-0.7,0.1-1.5,0.1-2.2
				c-0.7-0.4-1-0.4-1.8-0.4c-2.1,0-3.4,1.1-4.6,3.7c0-1.8-0.1-2.3-0.4-3.4c-0.8,0-1.6,0-2.4,0c0.5,1.8,0.6,2.9,0.6,5.1
				c0,3.5,0,7,0,10.4c0.8,0,1.6,0,2.4,0C-34.6,14.2-34.6,12.1-34.6,10.1z"/>
			<path id="S45" class="st38" d="M-18.5,2.4c1.5,0,2.4,1.1,2.4,2.3c0,1.9-2.1,3.2-5.3,3.2c-0.6,0-1,0-1.7-0.1
				C-22.8,5-20.9,2.4-18.5,2.4 M-14.6,15.3c0-0.8,0-1.6,0-2.4c-1.5,1-2.9,1.5-4.2,1.5c-2.4,0-3.9-1.7-4.2-4.5c0.8,0.1,1.1,0,1.7,0
				c5,0,7.9-1.9,7.9-5.2c0-2.8-1.9-4.5-5.1-4.5c-4.2,0-7.1,3.6-7.1,8.8c0,4.6,2.5,7.5,6.5,7.5C-17.4,16.6-16.1,16.3-14.6,15.3z"/>
			<path id="S46" class="st38" d="M-9.2,23c1-0.7,1.2-1.1,1.8-1.8c0.9-1.3,1.6-3,1.6-4.5c0-1.7-1.1-3.4-2.4-3.4
				c-0.7,0-1.3,0.6-1.3,1.3c0,1.3,1.5,2.2,1.5,3.5s-0.5,2.3-2,3.6C-9.8,22.1-9.5,22.6-9.2,23z"/>
			<path id="S47" class="st38" d="M15.7,15.7c0-0.6,0-1.3,0-1.9c-0.9,0.5-1.2,0.6-1.7,0.6c-1,0-1.4-0.8-1.4-2.6c0-3.7,0-7.4,0-11.1
				c-0.8,0-1.7,0-2.5,0c0,3.7,0,7.5,0,11.2c0,3.2,1,4.6,3,4.6C14.1,16.5,14.7,16.3,15.7,15.7 M11.6-2.5c0.8,0,1.5-0.7,1.5-1.5
				c0-0.9-0.7-1.7-1.7-1.7C10.6-5.7,9.9-5,9.9-4C10-3.2,10.7-2.5,11.6-2.5z"/>
			<path id="S48" class="st38" d="M20.6,9.5c0-4.1,1.9-6.9,4.6-6.9c1.5,0,2.3,1.3,2.3,3.6c0,2.1,0,4.1,0,6.2c0,2.5,1.2,4,3.1,4
				c1,0,1.7-0.2,2.4-0.8c0-0.6,0-1.2,0-1.8c-0.8,0.5-1.1,0.6-1.6,0.6c-0.9,0-1.5-0.8-1.5-2.2c0-2,0-4,0-6c0-3.8-1.8-5.9-4.8-5.9
				c-2,0-3.4,0.8-4.9,3C20,1.7,20,1.5,19.6,0.7c-0.8,0-1.6,0-2.4,0c0.4,1.1,0.7,3.3,0.7,5c0,3.5,0,7.1,0,10.6c0.8,0,1.7,0,2.5,0
				C20.6,14,20.6,11.8,20.6,9.5z"/>
			<path id="S49" class="st38" d="M45.7,3c0,1.5,0,3,0,4.5c0,4.1-1.7,6.7-4.3,6.7c-2.2,0-3.3-1.7-3.3-4.7c0-4.4,2-6.9,5.4-6.9
				C44.3,2.7,44.7,2.7,45.7,3 M48.1,1.1c-1.8-0.6-2.7-0.8-4.5-0.8c-5,0-8.2,3.5-8.2,8.8c0,4.9,2.4,7.5,5.6,7.5c1.9,0,3.5-1,4.7-2.9
				c0.2,1.8,1.3,2.9,2.9,2.9c0.9,0,1.3-0.1,2.1-0.8c0-0.6,0-1.3,0-1.9c-2.3,0.5-2.7-0.1-2.7-1.5C48.1,8.7,48.1,4.9,48.1,1.1
				 M50.8,13.9c-0.5,0.4-0.8,0.5-1.2,0.5L50.8,13.9z"/>
			<path id="S50" class="st38" d="M56,9.5c0-4.1,1.9-6.9,4.6-6.9c1.5,0,2.3,1.3,2.3,3.6c0,2.1,0,4.1,0,6.2c0,2.5,1.2,4,3.1,4
				c1,0,1.7-0.2,2.4-0.8c0-0.6,0-1.2,0-1.8c-0.8,0.5-1.1,0.6-1.6,0.6c-0.9,0-1.5-0.8-1.4-2.2c0-2,0-4,0-6c0-3.8-1.8-5.9-4.8-5.9
				c-2,0-3.4,0.8-4.9,3c-0.2-1.6-0.2-1.8-0.6-2.6c-0.8,0-1.6,0-2.4,0c0.4,1.1,0.7,3.3,0.7,5c0,3.5,0,7.1,0,10.6c0.8,0,1.7,0,2.5,0
				C56,14,56,11.8,56,9.5z"/>
			<path id="S51" class="st38" d="M81.7,13.1c-1.7,1-2.8,1.3-4.2,1.3c-2.5,0-4.2-2.2-4.2-5.4c0-3.9,2-6.3,5-6.3
				c1.2,0,1.7,0.1,3.1,0.8c0.1-0.8,0.3-1.6,0.4-2.3c-1.6-0.7-2.2-0.9-3.8-0.9c-4.6,0-7.4,3.4-7.4,8.8c0,4.8,2.5,7.6,6.8,7.6
				c1.5,0,2.8-0.4,4.3-1.2C81.9,14.7,81.8,13.9,81.7,13.1z"/>
			<path id="S52" class="st38" d="M92.1,2.4c1.5,0,2.4,1.1,2.4,2.3c0,1.9-2.1,3.2-5.3,3.2c-0.6,0-1,0-1.7-0.1
				C87.8,5,89.8,2.4,92.1,2.4 M96,15.3c0-0.8,0-1.6,0-2.4c-1.5,1-2.9,1.5-4.2,1.5c-2.4,0-3.9-1.7-4.2-4.5c0.8,0.1,1.1,0,1.7,0
				c5,0,7.9-1.9,7.9-5.2c0-2.8-1.9-4.5-5.1-4.5C87.9,0.2,85,3.8,85,9c0,4.6,2.5,7.5,6.5,7.5C93.2,16.6,94.5,16.3,96,15.3z"/>
			<path id="S53" class="st38" d="M101.4,23c1-0.7,1.2-1.1,1.8-1.8c0.9-1.3,1.6-3,1.6-4.5c0-1.7-1.1-3.4-2.4-3.4
				c-0.7,0-1.3,0.6-1.3,1.3c0,1.3,1.5,2.2,1.5,3.5s-0.5,2.3-2,3.6C100.8,22.1,101.1,22.6,101.4,23z"/>
			<path id="S54" class="st38" d="M123.3,10.1c0-4.4,1.9-7.3,4.7-7.3c0.5,0,0.7,0.1,1.4,0.2c0-0.7,0.1-1.5,0.1-2.2
				c-0.7-0.4-1-0.4-1.8-0.4c-2.1,0-3.4,1.1-4.6,3.7c0-1.8-0.1-2.3-0.4-3.4c-0.8,0-1.6,0-2.4,0c0.5,1.8,0.6,2.9,0.6,5.1
				c0,3.5,0,7,0,10.4c0.8,0,1.6,0,2.4,0C123.3,14.2,123.3,12.1,123.3,10.1z"/>
			<path id="S55" class="st38" d="M139.4,2.4c1.5,0,2.4,1.1,2.4,2.3c0,1.9-2.1,3.2-5.3,3.2c-0.6,0-1,0-1.7-0.1
				C135.1,5,137,2.4,139.4,2.4 M143.3,15.3c0-0.8,0-1.6,0-2.4c-1.5,1-2.9,1.5-4.2,1.5c-2.4,0-3.9-1.7-4.2-4.5c0.8,0.1,1.1,0,1.7,0
				c5,0,7.9-1.9,7.9-5.2c0-2.8-1.9-4.5-5.1-4.5c-4.2,0-7.1,3.6-7.1,8.8c0,4.6,2.5,7.5,6.5,7.5C140.5,16.6,141.8,16.3,143.3,15.3z"/>
			<path id="S56" class="st38" d="M156,13.4c-0.8,0.6-2,1.1-2.7,1.1c-1.4,0-2.1-1-2.1-2.9c0-2.9,0-5.9,0-8.8c1.5,0,2.9,0,4.4,0
				c0-0.7,0-1.4,0-2.1c-1.5,0-2.9,0-4.4,0c0-1.1,0-2.2,0-3.4c-0.8,0-1.7,0-2.5,0c0,1.1,0,2.2,0,3.4c-0.7,0-1.3,0-2,0
				c0,0.7,0,1.4,0,2.1c0.7,0,1.3,0,2,0c0,2.9,0,5.9,0,8.8c0,3.4,1.5,5,4.3,5c1.2,0,2.2-0.4,3-1C156,14.9,156,14.1,156,13.4z"/>
			<path id="S57" class="st38" d="M169.5,3c0,1.5,0,3,0,4.5c0,4.1-1.7,6.7-4.3,6.7c-2.2,0-3.3-1.7-3.3-4.7c0-4.4,2-6.9,5.4-6.9
				C168.1,2.7,168.5,2.7,169.5,3 M172,1.1c-1.8-0.6-2.7-0.8-4.5-0.8c-5,0-8.2,3.5-8.2,8.8c0,4.9,2.4,7.5,5.6,7.5
				c1.9,0,3.5-1,4.7-2.9c0.2,1.8,1.3,2.9,2.9,2.9c0.9,0,1.3-0.1,2.1-0.8c0-0.6,0-1.3,0-1.9c-2.3,0.5-2.7-0.1-2.7-1.5
				C172,8.7,172,4.9,172,1.1 M174.7,13.9c-0.5,0.4-0.8,0.5-1.2,0.5L174.7,13.9z"/>
			<path id="S58" class="st38" d="M182.9,15.7c0-0.6,0-1.3,0-1.9c-0.9,0.5-1.2,0.6-1.7,0.6c-1,0-1.4-0.8-1.4-2.6c0-3.7,0-7.4,0-11.1
				c-0.8,0-1.7,0-2.5,0c0,3.7,0,7.5,0,11.2c0,3.2,1,4.6,3,4.6C181.3,16.5,182,16.3,182.9,15.7 M178.9-2.5c0.8,0,1.5-0.7,1.5-1.5
				c0-0.9-0.7-1.7-1.7-1.7c-0.8,0-1.5,0.7-1.5,1.7C177.2-3.2,178-2.5,178.9-2.5z"/>
			<path id="S59" class="st38" d="M190.9,13.9c-0.8,0.5-1.2,0.7-1.6,0.7c-1,0-1.5-0.9-1.5-3.2c0-6.6,0-13.2,0-19.8
				c-0.8,0-1.7,0-2.5,0c0,6.6,0,13.3,0,19.9c0,4.2,1.5,5.2,3.2,5.2c1,0,1.4-0.1,2.3-0.8C190.9,15.1,190.9,14.5,190.9,13.9z"/>
			<path id="S60" class="st38" d="M193.8,23c1-0.7,1.2-1.1,1.8-1.8c0.9-1.3,1.6-3,1.6-4.5c0-1.7-1.1-3.4-2.4-3.4
				c-0.7,0-1.3,0.6-1.3,1.3c0,1.3,1.5,2.2,1.5,3.5s-0.5,2.3-2,3.6C193.2,22.1,193.5,22.6,193.8,23z"/>
			<path id="S61" class="st38" d="M223,3c0,1.5,0,3,0,4.5c0,4.1-1.7,6.7-4.3,6.7c-2.2,0-3.3-1.7-3.3-4.7c0-4.4,2-6.9,5.4-6.9
				C221.6,2.7,222,2.7,223,3 M225.5,1.1c-1.8-0.6-2.7-0.8-4.5-0.8c-5,0-8.2,3.5-8.2,8.8c0,4.9,2.4,7.5,5.6,7.5c1.9,0,3.5-1,4.7-2.9
				c0.2,1.8,1.3,2.9,2.9,2.9c0.9,0,1.3-0.1,2.1-0.8c0-0.6,0-1.3,0-1.9c-2.3,0.5-2.7-0.1-2.7-1.5C225.5,8.7,225.5,4.9,225.5,1.1
				 M228.2,13.9c-0.5,0.4-0.8,0.5-1.2,0.5L228.2,13.9z"/>
			<path id="S62" class="st38" d="M233.4,9.5c0-4.1,1.9-6.9,4.6-6.9c1.5,0,2.3,1.3,2.3,3.6c0,2.1,0,4.1,0,6.2c0,2.5,1.2,4,3.2,4
				c1,0,1.7-0.2,2.4-0.8c0-0.6,0-1.2,0-1.8c-0.8,0.5-1.1,0.6-1.6,0.6c-0.9,0-1.5-0.8-1.5-2.2c0-2,0-4,0-6c0-3.8-1.8-5.9-4.8-5.9
				c-2,0-3.4,0.8-4.9,3c-0.2-1.6-0.2-1.8-0.6-2.6c-0.8,0-1.6,0-2.4,0c0.4,1.1,0.7,3.3,0.7,5c0,3.5,0,7.1,0,10.6c0.8,0,1.7,0,2.5,0
				C233.4,14,233.4,11.8,233.4,9.5z"/>
			<path id="S63" class="st38" d="M258.7,3.1c0,1.1,0,2.3,0,3.4c0,5.8-1.7,7.7-4.5,7.7c-2.1,0-3.4-1.9-3.4-4.8
				c0-4.1,2.1-6.9,5.2-6.9C257,2.5,257.7,2.6,258.7,3.1 M258.7,0.8c-1.4-0.5-2-0.6-3.3-0.6c-4.3,0-7.3,3.7-7.3,9
				c0,4.5,2.4,7.5,6,7.5c2.1,0,3.8-1,4.7-2.8c0.3,2.1,1.5,2.7,2.9,2.7c0.8,0,1.4-0.3,2.1-0.8c0-0.6,0-1.3,0-1.9
				c-0.6,0.4-1,0.5-1.4,0.5c-1.3,0-1.3-0.5-1.3-3.5c0-6.5,0-12.9,0-19.4c-0.8,0-1.7,0-2.5,0C258.7-5.4,258.7-2.3,258.7,0.8z"/>
			<path id="S64" class="st38" d="M280.3,13.7c0-1,0-2,0-2.9c0-6.1,2.2-8.3,4.7-8.3c2,0,3.5,1.9,3.5,5.2c0,4.4-1.9,6.9-5.2,6.9
				C282,14.5,281.4,14.4,280.3,13.7 M280.3,2.7c0-3.8,0-7.5,0-11.2c-0.8,0-1.7,0-2.5,0c0,7.9,0,15.8,0,23.6c1.7,0.9,4.1,1.5,6,1.5
				c4.5,0,7.3-3.5,7.3-9.1c0-4.6-2.2-7.3-5.9-7.3C283.1,0.2,281.4,1,280.3,2.7z"/>
			<path id="S65" class="st38" d="M302,2.4c1.5,0,2.4,1.1,2.4,2.3c0,1.9-2.1,3.2-5.3,3.2c-0.6,0-1,0-1.7-0.1
				C297.7,5,299.7,2.4,302,2.4 M305.9,15.3c0-0.8,0-1.6,0-2.4c-1.5,1-2.9,1.5-4.2,1.5c-2.4,0-3.9-1.7-4.2-4.5c0.8,0.1,1.1,0,1.7,0
				c5,0,7.9-1.9,7.9-5.2c0-2.8-1.9-4.5-5.1-4.5c-4.2,0-7.1,3.6-7.1,8.8c0,4.6,2.5,7.5,6.5,7.5C303.1,16.6,304.4,16.3,305.9,15.3z"/>
			<path id="S66" class="st38" d="M323,0.7c-0.8,0-1.7,0-2.5,0c0,2.1,0,4.3,0,6.4c0,5-2,7.3-4.5,7.3c-1.5,0-2.6-0.8-2.6-3.8
				c0-3.8,0.1-7.1-0.4-9.9c-0.8,0-1.6,0-2.3,0c0.5,2.9,0.4,4.6,0.4,9.8c0,4.7,2,6.1,4.8,6.1c2,0,3.4-0.8,4.7-2.6c0,1,0,2.1,0,3.1
				c0,5.7-1.7,7.7-4.6,7.7c-1.5,0-3.4-0.8-4.5-1.8c-0.2,0.7-0.4,1.3-0.6,2c1.1,1,3.2,1.8,5.2,1.8c3.6,0,6.9-1.7,6.9-9.6
				C323,11.6,323,6.2,323,0.7z"/>
			<path id="S67" class="st38" d="M334.5,2.4c2.8,0,4.3,2.1,4.3,5.7c0,3.9-1.7,6.4-4.5,6.4s-4.3-2-4.3-5.7
				C330.1,4.7,331.7,2.4,334.5,2.4 M334.4,16.7c4.3,0,7-3.3,7-8.5c0-5-2.6-8-6.9-8c-4.4,0-7,3.3-7,8.5
				C327.5,13.7,330.1,16.7,334.4,16.7z"/>
			<path id="S68" class="st38" d="M348.2,9.5c0-4.1,1.9-6.9,4.6-6.9c1.5,0,2.3,1.3,2.3,3.6c0,2.1,0,4.1,0,6.2c0,2.5,1.2,4,3.1,4
				c1,0,1.7-0.2,2.4-0.8c0-0.6,0-1.2,0-1.8c-0.8,0.5-1.1,0.6-1.6,0.6c-0.9,0-1.5-0.8-1.5-2.2c0-2,0-4,0-6c0-3.8-1.8-5.9-4.8-5.9
				c-2,0-3.4,0.8-4.9,3c-0.2-1.6-0.2-1.8-0.6-2.6c-0.8,0-1.6,0-2.4,0c0.4,1.1,0.7,3.3,0.7,5c0,3.5,0,7.1,0,10.6c0.8,0,1.7,0,2.5,0
				C348.2,14,348.2,11.8,348.2,9.5z"/>
			<path id="S69" class="st38" d="M373.5,3.1c0,1.1,0,2.3,0,3.4c0,5.8-1.7,7.7-4.5,7.7c-2.1,0-3.4-1.9-3.4-4.8
				c0-4.1,2.1-6.9,5.2-6.9C371.9,2.5,372.5,2.6,373.5,3.1 M373.5,0.8c-1.4-0.5-2-0.6-3.3-0.6c-4.3,0-7.3,3.7-7.3,9
				c0,4.5,2.4,7.5,6,7.5c2.1,0,3.8-1,4.7-2.8c0.3,2.1,1.5,2.7,2.9,2.7c0.8,0,1.4-0.3,2.1-0.8c0-0.6,0-1.3,0-1.9
				c-0.6,0.4-1,0.5-1.4,0.5c-1.3,0-1.3-0.5-1.3-3.5c0-6.5,0-12.9,0-19.4c-0.8,0-1.7,0-2.5,0C373.5-5.4,373.5-2.3,373.5,0.8z"/>
			<path id="S70" class="st38" d="M385.4,15.2c0-0.9-0.8-1.7-1.6-1.7c-0.9,0-1.6,0.7-1.6,1.6c0,0.9,0.7,1.6,1.6,1.6
				C384.6,16.7,385.4,16,385.4,15.2z"/>
			<path id="S71" class="st38" d="M-192.3,45c0-2.8,0-5.5,0-8.3c0.9-0.1,1.2-0.1,2.1-0.1c5.7,0,7.3,1.7,7.3,4.4
				c0,2.9-2.3,4.2-6.6,4.2C-190.7,45.1-191.1,45.1-192.3,45 M-178.2,58.7c-3.4-3.8-6.8-7.6-10.2-11.4c5.2,0,8.2-2.5,8.2-6.4
				c0-5.3-3.9-6.9-9.8-6.9c-1.9,0-3.7,0-4.9,0.1c0,8.2,0,16.4,0,24.6c0.9,0,1.7,0,2.6,0c0-3.9,0-7.8,0-11.7
				c3.4,3.9,6.9,7.8,10.3,11.7C-180.7,58.7-179.5,58.7-178.2,58.7z"/>
			<path id="S72" class="st38" d="M-168.9,44.8c1.5,0,2.4,1.1,2.4,2.3c0,1.9-2.1,3.2-5.3,3.2c-0.6,0-1,0-1.7-0.1
				C-173.2,47.5-171.2,44.8-168.9,44.8 M-165,57.8c0-0.8,0-1.6,0-2.4c-1.5,1-2.9,1.5-4.2,1.5c-2.4,0-3.9-1.7-4.2-4.5
				c0.8,0.1,1.1,0,1.7,0c5,0,7.9-1.9,7.9-5.2c0-2.8-1.9-4.5-5.1-4.5c-4.2,0-7.1,3.6-7.1,8.8c0,4.6,2.5,7.5,6.5,7.5
				C-167.8,59.1-166.5,58.8-165,57.8z"/>
			<path id="S73" class="st38" d="M-157.4,55.3c0-1.2,0-2.4,0-3.6c0-4.1,1.8-6.7,4.5-6.7c2.3,0,3.6,1.9,3.6,5.2
				c0,3.7-2.2,6.5-4.8,6.5C-155.1,56.8-156.6,56.2-157.4,55.3 M-152.6,42.6c-2,0-3.6,0.8-5,2.7c-0.1-1.2-0.2-1.5-0.4-2.2
				c-0.8,0-1.7,0-2.5,0c0.4,1.3,0.7,3.3,0.7,4.3c0,7.2,0,14.4,0,21.5c0.8,0,1.7,0,2.5,0c0-3.8,0-7.5,0-11.3c1,0.9,2.4,1.2,3.9,1.2
				c4.2,0,6.9-3.4,6.9-8.8C-146.6,45.5-149,42.6-152.6,42.6z"/>
			<path id="S74" class="st38" d="M-139.8,52.6c0-4.4,1.9-7.3,4.7-7.3c0.5,0,0.7,0.1,1.4,0.2c0-0.7,0.1-1.5,0.1-2.2
				c-0.7-0.4-1-0.4-1.8-0.4c-2.1,0-3.4,1.1-4.6,3.7c0-1.8-0.1-2.3-0.4-3.4c-0.8,0-1.6,0-2.4,0c0.5,1.8,0.6,2.9,0.6,5.1
				c0,3.5,0,7,0,10.4c0.8,0,1.6,0,2.4,0C-139.8,56.6-139.8,54.6-139.8,52.6z"/>
			<path id="S75" class="st38" d="M-123.7,44.8c1.5,0,2.4,1.1,2.4,2.3c0,1.9-2.1,3.2-5.3,3.2c-0.6,0-1,0-1.7-0.1
				C-128,47.5-126.1,44.8-123.7,44.8 M-119.8,57.8c0-0.8,0-1.6,0-2.4c-1.5,1-2.9,1.5-4.2,1.5c-2.4,0-3.9-1.7-4.2-4.5
				c0.8,0.1,1.1,0,1.7,0c5,0,7.9-1.9,7.9-5.2c0-2.8-1.9-4.5-5.1-4.5c-4.2,0-7.1,3.6-7.1,8.8c0,4.6,2.5,7.5,6.5,7.5
				C-122.6,59.1-121.3,58.8-119.8,57.8z"/>
			<path id="S76" class="st38" d="M-106,43.9c-1.5-1-3-1.2-4.5-1.2c-3,0-4.8,1.6-4.8,4c0,2.1,1.2,3.3,4.6,5.5
				c1.6,1.1,2.3,1.8,2.3,2.8c0,1.4-0.9,2.2-2.7,2.2c-1.4,0-3-0.6-4.4-1.6c-0.2,0.7-0.4,1.4-0.5,2.2c1.6,1.1,3.2,1.5,5.1,1.5
				c3.1,0,5.1-1.7,5.1-4.3c0-2.3-1-3.3-3.5-5c-2.2-1.5-3.4-2.2-3.4-3.3c0-1.4,1-1.8,2.2-1.8s2.7,0.3,4.2,1.3
				C-106.2,45.4-106.1,44.6-106,43.9z"/>
			<path id="S77" class="st38" d="M-95.1,44.8c1.5,0,2.4,1.1,2.4,2.3c0,1.9-2.1,3.2-5.3,3.2c-0.6,0-1,0-1.7-0.1
				C-99.4,47.5-97.4,44.8-95.1,44.8 M-91.2,57.8c0-0.8,0-1.6,0-2.4c-1.5,1-2.9,1.5-4.2,1.5c-2.4,0-3.9-1.7-4.2-4.5
				c0.8,0.1,1.1,0,1.7,0c5,0,7.9-1.9,7.9-5.2c0-2.8-1.9-4.5-5.1-4.5c-4.2,0-7.1,3.6-7.1,8.8c0,4.6,2.5,7.5,6.5,7.5
				C-94,59.1-92.7,58.8-91.2,57.8z"/>
			<path id="S78" class="st38" d="M-83.7,52c0-4.1,1.9-6.9,4.6-6.9c1.5,0,2.3,1.3,2.3,3.6c0,2.1,0,4.1,0,6.2c0,2.5,1.2,4,3.1,4
				c1,0,1.7-0.2,2.4-0.8c0-0.6,0-1.2,0-1.8c-0.8,0.5-1.1,0.6-1.6,0.6c-0.9,0-1.5-0.9-1.5-2.2c0-2,0-4,0-6c0-3.8-1.8-5.9-4.8-5.9
				c-2,0-3.4,0.8-4.9,3c-0.2-1.6-0.2-1.8-0.6-2.6c-0.8,0-1.6,0-2.4,0c0.4,1.1,0.7,3.3,0.7,5c0,3.5,0,7.1,0,10.6c0.8,0,1.7,0,2.5,0
				C-83.7,56.5-83.7,54.2-83.7,52z"/>
			<path id="S79" class="st38" d="M-60.7,55.9c-0.8,0.6-2,1.1-2.7,1.1c-1.4,0-2.1-1-2.1-2.9c0-2.9,0-5.9,0-8.8c1.5,0,2.9,0,4.4,0
				c0-0.7,0-1.4,0-2.1c-1.5,0-2.9,0-4.4,0c0-1.1,0-2.2,0-3.4c-0.8,0-1.7,0-2.5,0c0,1.1,0,2.2,0,3.4c-0.7,0-1.3,0-2,0
				c0,0.7,0,1.4,0,2.1c0.7,0,1.3,0,2,0c0,2.9,0,5.9,0,8.8c0,3.4,1.5,5,4.3,5c1.2,0,2.2-0.4,3-1C-60.7,57.3-60.7,56.6-60.7,55.9z"/>
			<path id="S80" class="st38" d="M-48.3,43.9c-1.5-1-3-1.2-4.5-1.2c-3,0-4.8,1.6-4.8,4c0,2.1,1.2,3.3,4.6,5.5
				c1.6,1.1,2.3,1.8,2.3,2.8c0,1.4-0.9,2.2-2.7,2.2c-1.4,0-3-0.6-4.4-1.6c-0.2,0.7-0.4,1.4-0.5,2.2c1.6,1.1,3.2,1.5,5.1,1.5
				c3.1,0,5.1-1.7,5.1-4.3c0-2.3-1-3.3-3.5-5c-2.2-1.5-3.4-2.2-3.4-3.3c0-1.4,1-1.8,2.2-1.8s2.7,0.3,4.2,1.3
				C-48.6,45.4-48.4,44.6-48.3,43.9z"/>
			<path id="S81" class="st38" d="M-25.4,55.9c-0.8,0.6-2,1.1-2.7,1.1c-1.4,0-2.1-1-2.1-2.9c0-2.9,0-5.9,0-8.8c1.5,0,2.9,0,4.4,0
				c0-0.7,0-1.4,0-2.1c-1.5,0-2.9,0-4.4,0c0-1.1,0-2.2,0-3.4c-0.8,0-1.7,0-2.5,0c0,1.1,0,2.2,0,3.4c-0.7,0-1.3,0-2,0
				c0,0.7,0,1.4,0,2.1c0.7,0,1.3,0,2,0c0,2.9,0,5.9,0,8.8c0,3.4,1.5,5,4.3,5c1.2,0,2.2-0.4,3-1C-25.4,57.3-25.4,56.6-25.4,55.9z"/>
			<path id="S82" class="st38" d="M-21.7,58.7c0.8,0,1.7,0,2.5,0c0-2.4,0-4.7,0-7.1c0-3.5,1.9-6.4,4.4-6.4c1.8,0,2.5,1,2.5,3.3
				c0,2.1,0,4.1,0,6.2c0,2.9,1.1,4.4,3.1,4.4c0.8,0,1.5-0.2,2.4-0.8c0-0.7,0-1.3,0-2C-7.6,56.8-7.9,57-8.4,57
				c-0.9,0-1.4-0.8-1.4-2.3c0-2,0-3.9,0-5.9c0-5.1-2.2-5.9-4.8-5.9c-1.9,0-3.5,0.9-4.7,2.7c0-3.8,0-7.7,0-11.5c-0.8,0-1.6,0-2.4,0
				C-21.7,42.2-21.7,50.4-21.7,58.7z"/>
			<path id="S83" class="st38" d="M2.5,44.8c1.5,0,2.4,1.1,2.4,2.3c0,1.9-2.1,3.2-5.3,3.2c-0.6,0-1,0-1.7-0.1
				C-1.8,47.5,0.1,44.8,2.5,44.8 M6.3,57.8c0-0.8,0-1.6,0-2.4c-1.5,1-2.9,1.5-4.2,1.5c-2.4,0-3.9-1.7-4.2-4.5c0.8,0.1,1.1,0,1.7,0
				c5,0,7.9-1.9,7.9-5.2c0-2.8-1.9-4.5-5.1-4.5c-4.2,0-7.1,3.6-7.1,8.8c0,4.6,2.5,7.5,6.5,7.5C3.6,59.1,4.9,58.8,6.3,57.8z"/>
			<path id="S84" class="st38" d="M23.4,43.1c-1,0-2.1,0-3.1,0c0,0.7,0,1.4,0,2.1c1,0,2.1,0,3.1,0c0,5,0,9.9,0,14.9
				c0,6.2-1.6,6.9-3.5,6.9c-0.8,0-1.5-0.2-2.7-0.8c-0.1,0.7-0.1,1.4-0.2,2.1c1.2,0.6,2,0.8,3.1,0.8c3.9,0,5.8-2.2,5.8-8.3
				c0-5.2,0-10.4,0-15.5c1.3,0,2.5,0,3.8,0c0-0.7,0-1.4,0-2.1c-1.3,0-2.5,0-3.8,0c0-0.4,0-0.7,0-1.1c0-4.1,0.8-5.8,2.8-5.8
				c0.7,0,1.1,0.1,1.9,0.6c0-0.8,0.1-1.5,0.1-2.3c-1-0.4-1.4-0.5-2.3-0.5c-3.4,0-5,2.4-5,7.6C23.4,42.1,23.4,42.6,23.4,43.1z"/>
			<path id="S85" class="st38" d="M42.3,51.3c0,3.4-1.9,5.6-4.3,5.6c-2.1,0-2.7-1.5-2.7-4.6c0-3.6,0.1-5.6-0.2-9.2
				c-0.8,0-1.7,0-2.5,0c0.5,3.7,0.4,5.7,0.4,9.5c0,4.6,1.7,6.4,5,6.4c1.9,0,3.5-0.8,4.7-2.7c0.3,1.8,1.2,2.6,2.9,2.6
				c0.8,0,1.5-0.2,2.4-0.8c0-0.6,0-1.2,0-1.9c-0.9,0.5-1.2,0.6-1.6,0.6c-0.9,0-1.4-0.8-1.4-2.3c0-3.8,0-7.6,0-11.5
				c-0.8,0-1.7,0-2.5,0C42.3,45.9,42.3,48.6,42.3,51.3z"/>
			<path id="S86" class="st38" d="M56,56.3c-0.8,0.5-1.2,0.7-1.6,0.7c-1,0-1.4-0.9-1.4-3.2c0-6.6,0-13.2,0-19.8c-0.8,0-1.7,0-2.5,0
				c0,6.6,0,13.3,0,19.9c0,4.2,1.5,5.2,3.2,5.2c1,0,1.4-0.1,2.3-0.8C56,57.6,56,57,56,56.3z"/>
			<path id="S87" class="st38" d="M64,56.3c-0.8,0.5-1.2,0.7-1.6,0.7c-1,0-1.5-0.9-1.5-3.2c0-6.6,0-13.2,0-19.8c-0.8,0-1.7,0-2.5,0
				c0,6.6,0,13.3,0,19.9c0,4.2,1.5,5.2,3.2,5.2c1,0,1.4-0.1,2.3-0.8C64,57.6,64,57,64,56.3z"/>
			<path id="S88" class="st38" d="M86.1,43.9c-1.5-1-3-1.2-4.5-1.2c-3,0-4.8,1.6-4.8,4c0,2.1,1.2,3.3,4.6,5.5
				c1.6,1.1,2.3,1.8,2.3,2.8c0,1.4-0.9,2.2-2.7,2.2c-1.4,0-3-0.6-4.4-1.6c-0.2,0.7-0.4,1.4-0.5,2.2c1.6,1.1,3.2,1.5,5.1,1.5
				c3.1,0,5.1-1.7,5.1-4.3c0-2.3-1-3.3-3.5-5c-2.2-1.5-3.4-2.2-3.4-3.3c0-1.4,1-1.8,2.2-1.8s2.7,0.3,4.2,1.3
				C85.9,45.4,86,44.6,86.1,43.9z"/>
			<path id="S89" class="st38" d="M93.1,55.3c0-1.2,0-2.4,0-3.6c0-4.1,1.8-6.7,4.5-6.7c2.3,0,3.6,1.9,3.6,5.2c0,3.7-2.2,6.5-4.8,6.5
				C95.3,56.8,93.9,56.2,93.1,55.3 M97.8,42.6c-2,0-3.6,0.8-5,2.7c-0.1-1.2-0.2-1.5-0.4-2.2c-0.8,0-1.7,0-2.5,0
				c0.4,1.3,0.7,3.3,0.7,4.3c0,7.2,0,14.4,0,21.5c0.8,0,1.7,0,2.5,0c0-3.8,0-7.5,0-11.3c1,0.9,2.4,1.2,3.9,1.2
				c4.2,0,6.9-3.4,6.9-8.8C103.8,45.5,101.4,42.6,97.8,42.6z"/>
			<path id="S90" class="st38" d="M114.8,44.8c1.5,0,2.4,1.1,2.4,2.3c0,1.9-2.1,3.2-5.3,3.2c-0.6,0-1,0-1.7-0.1
				C110.4,47.5,112.4,44.8,114.8,44.8 M118.6,57.8c0-0.8,0-1.6,0-2.4c-1.5,1-2.9,1.5-4.2,1.5c-2.4,0-3.9-1.7-4.2-4.5
				c0.8,0.1,1.1,0,1.7,0c5,0,7.9-1.9,7.9-5.2c0-2.8-1.9-4.5-5.1-4.5c-4.2,0-7.1,3.6-7.1,8.8c0,4.6,2.5,7.5,6.5,7.5
				C115.8,59.1,117.1,58.8,118.6,57.8z"/>
			<path id="S91" class="st38" d="M134.1,55.5c-1.7,1-2.8,1.3-4.2,1.3c-2.5,0-4.2-2.2-4.2-5.4c0-3.9,2-6.3,5-6.3
				c1.2,0,1.7,0.1,3.1,0.8c0.1-0.8,0.3-1.6,0.4-2.3c-1.6-0.7-2.2-0.8-3.8-0.8c-4.6,0-7.4,3.4-7.4,8.8c0,4.8,2.5,7.6,6.8,7.6
				c1.5,0,2.8-0.4,4.3-1.2C134.2,57.1,134.2,56.3,134.1,55.5z"/>
			<path id="S92" class="st38" d="M145.6,55.9c-0.8,0.6-2,1.1-2.7,1.1c-1.4,0-2.1-1-2.1-2.9c0-2.9,0-5.9,0-8.8c1.5,0,2.9,0,4.4,0
				c0-0.7,0-1.4,0-2.1c-1.5,0-2.9,0-4.4,0c0-1.1,0-2.2,0-3.4c-0.8,0-1.7,0-2.5,0c0,1.1,0,2.2,0,3.4c-0.7,0-1.3,0-2,0
				c0,0.7,0,1.4,0,2.1c0.7,0,1.3,0,2,0c0,2.9,0,5.9,0,8.8c0,3.4,1.5,5,4.3,5c1.2,0,2.2-0.4,3-1C145.6,57.3,145.6,56.6,145.6,55.9z"
				/>
			<path id="S93" class="st38" d="M151.7,52.6c0-4.4,1.9-7.3,4.7-7.3c0.5,0,0.7,0.1,1.4,0.2c0-0.7,0.1-1.5,0.1-2.2
				c-0.7-0.4-1-0.4-1.8-0.4c-2.1,0-3.4,1.1-4.6,3.7c0-1.8-0.1-2.3-0.4-3.4c-0.8,0-1.6,0-2.4,0c0.5,1.8,0.6,2.9,0.6,5.1
				c0,3.5,0,7,0,10.4c0.8,0,1.6,0,2.4,0C151.7,56.6,151.7,54.6,151.7,52.6z"/>
			<path id="S94" class="st38" d="M170.8,51.3c0,3.4-1.9,5.6-4.3,5.6c-2.1,0-2.7-1.5-2.7-4.6c0-3.6,0.1-5.6-0.2-9.2
				c-0.8,0-1.7,0-2.5,0c0.5,3.7,0.4,5.7,0.4,9.5c0,4.6,1.7,6.4,5,6.4c1.9,0,3.5-0.8,4.7-2.7c0.3,1.8,1.2,2.6,2.9,2.6
				c0.8,0,1.5-0.2,2.4-0.8c0-0.6,0-1.2,0-1.9c-0.9,0.5-1.2,0.6-1.6,0.6c-0.9,0-1.4-0.8-1.4-2.3c0-3.8,0-7.6,0-11.5
				c-0.8,0-1.7,0-2.5,0C170.8,45.9,170.8,48.6,170.8,51.3z"/>
			<path id="S95" class="st38" d="M181.5,50.7c0-3.2,1.8-5.6,4-5.6c1.8,0,2.7,1.3,2.7,4c0,3.2,0,6.4,0,9.6c0.8,0,1.7,0,2.5,0
				c0-2.8,0-5.6,0-8.4c0-3.4,1.6-5.3,3.8-5.3c1.5,0,2.4,1.2,2.4,3.4c0,2.1,0,4.2,0,6.3c0,2.9,1,4.3,3.1,4.3c1,0,1.7-0.2,2.4-0.9
				c0-0.6,0-1.2,0-1.8c-0.8,0.5-1.2,0.6-1.6,0.6c-1.1,0-1.5-0.8-1.5-2.8c0-1.8,0-3.7,0-5.5c0-3.9-1.8-5.9-4.7-5.9
				c-1.9,0-3.5,0.9-4.6,2.6c-1-1.8-2.4-2.7-4.3-2.7c-2,0-3.2,0.7-4.5,2.8c-0.1-1.1-0.2-1.4-0.5-2.4c-0.8,0-1.6,0-2.4,0
				c0.5,1.7,0.7,3.3,0.7,5.5c0,3.4,0,6.7,0,10.1c0.8,0,1.7,0,2.5,0C181.5,56,181.5,53.4,181.5,50.7z"/>
			<path id="S96" class="st38" d="M222.5,44.8c2.8,0,4.3,2.1,4.3,5.7c0,3.9-1.7,6.4-4.5,6.4s-4.3-2-4.3-5.7
				C218.1,47.1,219.7,44.8,222.5,44.8 M222.4,59.2c4.3,0,7-3.3,7-8.5c0-5-2.6-8-6.9-8c-4.4,0-7,3.3-7,8.5
				C215.5,56.1,218.1,59.2,222.4,59.2z"/>
			<path id="S97" class="st38" d="M234.9,43.1c-1,0-2.1,0-3.1,0c0,0.7,0,1.4,0,2.1c1,0,2.1,0,3.1,0c0,5,0,9.9,0,14.9
				c0,6.2-1.6,6.9-3.5,6.9c-0.8,0-1.5-0.2-2.7-0.8c-0.1,0.7-0.1,1.4-0.2,2.1c1.2,0.6,2,0.8,3.1,0.8c3.9,0,5.8-2.2,5.8-8.3
				c0-5.2,0-10.4,0-15.5c1.3,0,2.5,0,3.8,0c0-0.7,0-1.4,0-2.1c-1.3,0-2.5,0-3.8,0c0-0.4,0-0.7,0-1.1c0-4.1,0.8-5.8,2.8-5.8
				c0.7,0,1.1,0.1,1.9,0.6c0-0.8,0.1-1.5,0.1-2.3c-1-0.4-1.4-0.5-2.3-0.5c-3.4,0-5,2.4-5,7.6C234.9,42.1,234.9,42.6,234.9,43.1z"/>
			<path id="S98" class="st38" d="M264.7,51.3c0,3.4-1.9,5.6-4.3,5.6c-2.1,0-2.7-1.5-2.7-4.6c0-3.6,0.1-5.6-0.2-9.2
				c-0.8,0-1.7,0-2.5,0c0.5,3.7,0.4,5.7,0.4,9.5c0,4.6,1.7,6.4,5,6.4c1.9,0,3.5-0.8,4.7-2.7c0.3,1.8,1.2,2.6,2.9,2.6
				c0.8,0,1.5-0.2,2.4-0.8c0-0.6,0-1.2,0-1.9c-0.9,0.5-1.2,0.6-1.6,0.6c-0.9,0-1.4-0.8-1.4-2.3c0-3.8,0-7.6,0-11.5
				c-0.8,0-1.7,0-2.5,0C264.7,45.9,264.7,48.6,264.7,51.3z"/>
			<path id="S99" class="st38" d="M281.6,43.9c-1.5-1-3-1.2-4.5-1.2c-3,0-4.8,1.6-4.8,4c0,2.1,1.2,3.3,4.6,5.5
				c1.6,1.1,2.3,1.8,2.3,2.8c0,1.4-0.9,2.2-2.7,2.2c-1.4,0-3-0.6-4.4-1.6c-0.2,0.7-0.4,1.4-0.5,2.2c1.6,1.1,3.2,1.5,5.1,1.5
				c3.1,0,5.1-1.7,5.1-4.3c0-2.3-1-3.3-3.5-5c-2.2-1.5-3.4-2.2-3.4-3.3c0-1.4,1-1.8,2.2-1.8s2.7,0.3,4.2,1.3
				C281.4,45.4,281.5,44.6,281.6,43.9z"/>
			<path id="S100" class="st38" d="M292.6,44.8c1.5,0,2.4,1.1,2.4,2.3c0,1.9-2.1,3.2-5.3,3.2c-0.6,0-1,0-1.7-0.1
				C288.3,47.5,290.2,44.8,292.6,44.8 M296.4,57.8c0-0.8,0-1.6,0-2.4c-1.5,1-2.9,1.5-4.2,1.5c-2.4,0-3.9-1.7-4.2-4.5
				c0.8,0.1,1.1,0,1.7,0c5,0,7.9-1.9,7.9-5.2c0-2.8-1.9-4.5-5.1-4.5c-4.2,0-7.1,3.6-7.1,8.8c0,4.6,2.5,7.5,6.5,7.5
				C293.6,59.1,295,58.8,296.4,57.8z"/>
			<path id="S101" class="st38" d="M303.9,52.6c0-4.4,1.9-7.3,4.7-7.3c0.5,0,0.7,0.1,1.4,0.2c0-0.7,0.1-1.5,0.1-2.2
				c-0.7-0.4-1-0.4-1.8-0.4c-2.1,0-3.4,1.1-4.6,3.7c0-1.8-0.1-2.3-0.4-3.4c-0.8,0-1.6,0-2.4,0c0.5,1.8,0.6,2.9,0.6,5.1
				c0,3.5,0,7,0,10.4c0.8,0,1.6,0,2.4,0C303.9,56.6,303.9,54.6,303.9,52.6z"/>
			<path id="S102" class="st38" d="M319.6,49.6c-2.7,0-5.4,0-8.1,0c0,0.7,0,1.4,0,2.1c2.7,0,5.4,0,8.1,0
				C319.6,51,319.6,50.3,319.6,49.6z"/>
			<path id="S103" class="st38" d="M323.8,43.1c-1,0-2.1,0-3.1,0c0,0.7,0,1.4,0,2.1c1,0,2.1,0,3.1,0c0,5,0,9.9,0,14.9
				c0,6.2-1.6,6.9-3.5,6.9c-0.8,0-1.5-0.2-2.7-0.8c-0.1,0.7-0.1,1.4-0.2,2.1c1.2,0.6,2,0.8,3.1,0.8c3.9,0,5.8-2.2,5.8-8.3
				c0-5.2,0-10.4,0-15.5c1.3,0,2.5,0,3.8,0c0-0.7,0-1.4,0-2.1c-1.3,0-2.5,0-3.8,0c0-0.4,0-0.7,0-1.1c0-4.1,0.8-5.8,2.8-5.8
				c0.7,0,1.1,0.1,1.9,0.6c0-0.8,0.1-1.5,0.1-2.3c-1-0.4-1.4-0.5-2.3-0.5c-3.4,0-5,2.4-5,7.6C323.8,42.1,323.8,42.6,323.8,43.1z"/>
			<path id="S104" class="st38" d="M343,45.5c0,1.5,0,3,0,4.5c0,4.1-1.7,6.7-4.3,6.7c-2.2,0-3.3-1.7-3.3-4.7c0-4.4,2-6.9,5.4-6.9
				C341.6,45.1,342,45.2,343,45.5 M345.4,43.5c-1.8-0.6-2.7-0.8-4.5-0.8c-5,0-8.2,3.5-8.2,8.8c0,4.9,2.4,7.5,5.6,7.5
				c1.9,0,3.5-1,4.7-2.9c0.2,1.8,1.3,2.9,2.9,2.9c0.9,0,1.3-0.1,2.1-0.8c0-0.6,0-1.3,0-1.9c-2.3,0.5-2.7-0.1-2.7-1.5
				C345.4,51.1,345.4,47.3,345.4,43.5 M348.1,56.4c-0.5,0.4-0.8,0.5-1.2,0.5L348.1,56.4z"/>
			<path id="S105" class="st38" d="M361.4,55.5c-1.7,1-2.8,1.3-4.2,1.3c-2.5,0-4.2-2.2-4.2-5.4c0-3.9,2-6.3,5-6.3
				c1.2,0,1.7,0.1,3.1,0.8c0.1-0.8,0.3-1.6,0.4-2.3c-1.6-0.7-2.2-0.8-3.8-0.8c-4.6,0-7.4,3.4-7.4,8.8c0,4.8,2.5,7.6,6.8,7.6
				c1.5,0,2.8-0.4,4.3-1.2C361.5,57.1,361.4,56.3,361.4,55.5z"/>
			<path id="S106" class="st38" d="M370.7,58.2c0-0.6,0-1.3,0-1.9c-0.9,0.5-1.2,0.6-1.7,0.6c-1,0-1.4-0.8-1.4-2.6
				c0-3.7,0-7.4,0-11.1c-0.8,0-1.7,0-2.5,0c0,3.7,0,7.5,0,11.2c0,3.2,1,4.6,3,4.6C369.1,59,369.7,58.8,370.7,58.2 M366.6,39.9
				c0.8,0,1.5-0.7,1.5-1.5c0-0.9-0.7-1.7-1.7-1.7c-0.8,0-1.5,0.7-1.5,1.7C364.9,39.3,365.7,39.9,366.6,39.9z"/>
			<path id="S107" class="st38" d="M375.6,52c0-4.1,1.9-6.9,4.6-6.9c1.5,0,2.3,1.3,2.3,3.6c0,2.1,0,4.1,0,6.2c0,2.5,1.2,4,3.1,4
				c1,0,1.7-0.2,2.4-0.8c0-0.6,0-1.2,0-1.8c-0.8,0.5-1.1,0.6-1.6,0.6c-0.9,0-1.5-0.9-1.5-2.2c0-2,0-4,0-6c0-3.8-1.8-5.9-4.8-5.9
				c-2,0-3.4,0.8-4.9,3c-0.2-1.6-0.2-1.8-0.6-2.6c-0.8,0-1.6,0-2.4,0c0.4,1.1,0.7,3.3,0.7,5c0,3.5,0,7.1,0,10.6c0.8,0,1.7,0,2.5,0
				C375.6,56.5,375.6,54.2,375.6,52z"/>
			<path id="S108" class="st38" d="M401,45.2c0,1.3,0,2.6,0,3.9c0,5-1.7,7.5-4.5,7.5c-2.2,0-3.6-1.7-3.6-4.7c0-4.4,2.3-6.9,6.1-6.9
				C399.8,45,400.1,45.1,401,45.2 M403.5,60.2c0-5.6,0-11.2,0-16.8c-1.7-0.5-2.4-0.6-4.2-0.6c-5.7,0-8.9,3.3-8.9,9.2
				c0,4.3,2.4,7.1,5.9,7.1c1.9,0,3.7-0.9,4.8-2.5c0,1.2,0,2.4,0,3.5c0,3.8-1.3,6.9-4.8,6.9c-1.5,0-2.8-0.4-4.4-1.6
				c-0.2,0.7-0.4,1.3-0.6,2c1.8,1.3,3.2,1.8,5.1,1.8C401,69.2,403.5,65.8,403.5,60.2z"/>
			<path id="S109" class="st38" d="M-179.8,90.3c-2.7,0-5.4,0-8.2,0c1.3-3.6,2.6-7.1,3.9-10.7C-182.7,83.2-181.3,86.8-179.8,90.3
				 M-172.9,101.1c-3.2-8.2-6.5-16.5-9.7-24.7c-0.9,0-1.7,0-2.6,0c-3.2,8.2-6.4,16.5-9.6,24.7c0.9,0,1.8,0,2.7,0
				c1.1-2.8,2.2-5.6,3.3-8.4c3.3,0,6.7,0,10,0c1.1,2.8,2.2,5.6,3.3,8.4C-174.7,101.1-173.8,101.1-172.9,101.1z"/>
			<path id="S110" class="st38" d="M-163.1,99.1c-1,0-2,0-2.9,0c0-6.9,0-13.7,0-20.6c1,0,2,0,2.9,0c0-0.7,0-1.4,0-2.1
				c-2.9,0-5.7,0-8.6,0c0,0.7,0,1.4,0,2.1c1,0,2,0,2.9,0c0,6.9,0,13.7,0,20.6c-1,0-2,0-2.9,0c0,0.7,0,1.4,0,2.1c2.9,0,5.7,0,8.6,0
				C-163.1,100.4-163.1,99.7-163.1,99.1z"/>
			<path id="S111" class="st38" d="M-139,87.9c0,1.5,0,3,0,4.5c0,4.1-1.7,6.7-4.3,6.7c-2.2,0-3.3-1.7-3.3-4.7c0-4.4,2-6.9,5.4-6.9
				C-140.4,87.6-140,87.6-139,87.9 M-136.5,86c-1.8-0.6-2.7-0.8-4.5-0.8c-5,0-8.2,3.5-8.2,8.8c0,4.9,2.4,7.5,5.6,7.5
				c1.9,0,3.5-1,4.7-2.9c0.2,1.8,1.3,2.9,2.9,2.9c0.9,0,1.3-0.1,2.1-0.8c0-0.6,0-1.3,0-1.9c-2.3,0.5-2.7-0.1-2.7-1.5
				C-136.5,93.6-136.5,89.8-136.5,86 M-133.8,98.8c-0.5,0.4-0.8,0.5-1.2,0.5L-133.8,98.8z"/>
			<path id="S112" class="st38" d="M-128.5,97.7c0-1.2,0-2.4,0-3.6c0-4.1,1.8-6.7,4.5-6.7c2.3,0,3.6,1.9,3.6,5.2
				c0,3.7-2.2,6.5-4.8,6.5C-126.2,99.3-127.6,98.7-128.5,97.7 M-123.7,85.1c-2,0-3.6,0.8-5,2.7c-0.1-1.2-0.2-1.5-0.4-2.2
				c-0.8,0-1.7,0-2.5,0c0.4,1.3,0.7,3.3,0.7,4.3c0,7.2,0,14.4,0,21.5c0.8,0,1.7,0,2.5,0c0-3.8,0-7.5,0-11.3c1,0.9,2.4,1.2,3.9,1.2
				c4.2,0,6.9-3.4,6.9-8.8C-117.7,87.9-120.1,85.1-123.7,85.1z"/>
			<path id="S113" class="st38" d="M-110.8,97.7c0-1.2,0-2.4,0-3.6c0-4.1,1.8-6.7,4.5-6.7c2.3,0,3.6,1.9,3.6,5.2
				c0,3.7-2.2,6.5-4.8,6.5C-108.5,99.3-110,98.7-110.8,97.7 M-106,85.1c-2,0-3.6,0.8-5,2.7c-0.1-1.2-0.2-1.5-0.4-2.2
				c-0.8,0-1.7,0-2.5,0c0.4,1.3,0.7,3.3,0.7,4.3c0,7.2,0,14.4,0,21.5c0.8,0,1.7,0,2.5,0c0-3.8,0-7.5,0-11.3c1,0.9,2.4,1.2,3.9,1.2
				c4.2,0,6.9-3.4,6.9-8.8C-100,87.9-102.4,85.1-106,85.1z"/>
			<path id="S114" class="st38" d="M-90.1,98.8c-0.8,0.5-1.2,0.7-1.6,0.7c-1,0-1.5-0.9-1.5-3.2c0-6.6,0-13.2,0-19.8
				c-0.8,0-1.7,0-2.5,0c0,6.6,0,13.3,0,19.9c0,4.2,1.5,5.2,3.2,5.2c1,0,1.4-0.1,2.3-0.8C-90.1,100.1-90.1,99.4-90.1,98.8z"/>
			<path id="S115" class="st38" d="M-82.2,100.6c0-0.6,0-1.3,0-1.9c-0.9,0.5-1.2,0.6-1.7,0.6c-1,0-1.4-0.8-1.4-2.6
				c0-3.7,0-7.4,0-11.1c-0.8,0-1.7,0-2.5,0c0,3.7,0,7.5,0,11.2c0,3.2,1,4.6,3,4.6C-83.8,101.4-83.1,101.2-82.2,100.6 M-86.2,82.4
				c0.8,0,1.5-0.7,1.5-1.5c0-0.9-0.7-1.7-1.7-1.7c-0.8,0-1.5,0.7-1.5,1.7C-87.9,81.8-87.1,82.4-86.2,82.4z"/>
			<path id="S116" class="st38" d="M-69.3,98c-1.7,1-2.8,1.3-4.2,1.3c-2.5,0-4.2-2.2-4.2-5.4c0-3.9,2-6.3,5-6.3
				c1.2,0,1.7,0.1,3.1,0.8c0.1-0.8,0.3-1.6,0.4-2.3c-1.6-0.7-2.2-0.8-3.8-0.8c-4.6,0-7.4,3.4-7.4,8.8c0,4.8,2.5,7.6,6.8,7.6
				c1.5,0,2.8-0.4,4.3-1.2C-69.1,99.6-69.2,98.8-69.3,98z"/>
			<path id="S117" class="st38" d="M-55.6,87.9c0,1.5,0,3,0,4.5c0,4.1-1.7,6.7-4.3,6.7c-2.2,0-3.3-1.7-3.3-4.7c0-4.4,2-6.9,5.4-6.9
				C-57,87.6-56.6,87.6-55.6,87.9 M-53.2,86c-1.8-0.6-2.7-0.8-4.5-0.8c-5,0-8.2,3.5-8.2,8.8c0,4.9,2.4,7.5,5.6,7.5
				c1.9,0,3.5-1,4.7-2.9c0.2,1.8,1.3,2.9,2.9,2.9c0.9,0,1.3-0.1,2.1-0.8c0-0.6,0-1.3,0-1.9c-2.3,0.5-2.7-0.1-2.7-1.5
				C-53.2,93.6-53.2,89.8-53.2,86 M-50.5,98.8c-0.5,0.4-0.8,0.5-1.2,0.5L-50.5,98.8z"/>
			<path id="S118" class="st38" d="M-40,98.3c-0.8,0.6-2,1.1-2.7,1.1c-1.4,0-2.1-1-2.1-2.9c0-2.9,0-5.9,0-8.8c1.5,0,2.9,0,4.4,0
				c0-0.7,0-1.4,0-2.1c-1.5,0-2.9,0-4.4,0c0-1.1,0-2.2,0-3.4c-0.8,0-1.7,0-2.5,0c0,1.1,0,2.2,0,3.4c-0.7,0-1.3,0-2,0
				c0,0.7,0,1.4,0,2.1c0.7,0,1.3,0,2,0c0,2.9,0,5.9,0,8.8c0,3.4,1.5,5,4.3,5c1.2,0,2.2-0.4,3-1C-40,99.8-40,99.1-40,98.3z"/>
			<path id="S119" class="st38" d="M-30.8,100.6c0-0.6,0-1.3,0-1.9c-0.9,0.5-1.2,0.6-1.7,0.6c-1,0-1.4-0.8-1.4-2.6
				c0-3.7,0-7.4,0-11.1c-0.8,0-1.7,0-2.5,0c0,3.7,0,7.5,0,11.2c0,3.2,1,4.6,3,4.6C-32.4,101.4-31.8,101.2-30.8,100.6 M-34.9,82.4
				c0.8,0,1.5-0.7,1.5-1.5c0-0.9-0.7-1.7-1.7-1.7c-0.8,0-1.5,0.7-1.5,1.7C-36.6,81.8-35.8,82.4-34.9,82.4z"/>
			<path id="S120" class="st38" d="M-21.9,87.3c2.8,0,4.3,2.1,4.3,5.7c0,3.9-1.7,6.4-4.5,6.4s-4.3-2-4.3-5.7
				C-26.3,89.6-24.8,87.3-21.9,87.3 M-22,101.6c4.3,0,7-3.3,7-8.5c0-5-2.6-8-6.9-8c-4.4,0-7,3.3-7,8.5
				C-28.9,98.6-26.3,101.6-22,101.6z"/>
			<path id="S121" class="st38" d="M-8.3,94.5c0-4.1,1.9-6.9,4.6-6.9c1.5,0,2.3,1.3,2.3,3.6c0,2.1,0,4.1,0,6.2c0,2.5,1.2,4,3.1,4
				c1,0,1.7-0.2,2.4-0.8c0-0.6,0-1.2,0-1.8c-0.8,0.5-1.1,0.6-1.6,0.6c-0.9,0-1.5-0.9-1.5-2.2c0-2,0-4,0-6c0-3.8-1.8-5.9-4.8-5.9
				c-2,0-3.4,0.8-4.9,3c-0.2-1.6-0.2-1.8-0.6-2.6c-0.8,0-1.6,0-2.4,0c0.4,1.1,0.7,3.3,0.7,5c0,3.5,0,7.1,0,10.6c0.8,0,1.7,0,2.5,0
				C-8.3,98.9-8.3,96.7-8.3,94.5z"/>
			<path id="S122" class="st38" d="M15.8,86.3c-1.5-1-3-1.2-4.5-1.2c-3,0-4.8,1.6-4.8,4c0,2.1,1.2,3.3,4.6,5.5
				c1.6,1.1,2.3,1.8,2.3,2.8c0,1.4-0.9,2.2-2.7,2.2c-1.4,0-3-0.6-4.4-1.6c-0.2,0.7-0.4,1.4-0.5,2.2c1.6,1.1,3.2,1.5,5.1,1.5
				c3.1,0,5.1-1.7,5.1-4.3c0-2.3-1-3.3-3.5-5c-2.2-1.5-3.4-2.2-3.4-3.3c0-1.4,1-1.8,2.2-1.8s2.7,0.3,4.2,1.3
				C15.6,87.8,15.7,87.1,15.8,86.3z"/>
			<path id="S123" class="st38" d="M40.8,87.9c0,1.5,0,3,0,4.5c0,4.1-1.7,6.7-4.3,6.7c-2.2,0-3.3-1.7-3.3-4.7c0-4.4,2-6.9,5.4-6.9
				C39.4,87.6,39.8,87.6,40.8,87.9 M43.3,86c-1.8-0.6-2.7-0.8-4.5-0.8c-5,0-8.2,3.5-8.2,8.8c0,4.9,2.4,7.5,5.6,7.5
				c1.9,0,3.5-1,4.7-2.9c0.2,1.8,1.3,2.9,2.9,2.9c0.9,0,1.3-0.1,2.1-0.8c0-0.6,0-1.3,0-1.9c-2.3,0.5-2.7-0.1-2.7-1.5
				C43.3,93.6,43.3,89.8,43.3,86 M46,98.8c-0.5,0.4-0.8,0.5-1.2,0.5L46,98.8z"/>
			<path id="S124" class="st38" d="M51.2,94.5c0-4.1,1.9-6.9,4.6-6.9c1.5,0,2.3,1.3,2.3,3.6c0,2.1,0,4.1,0,6.2c0,2.5,1.2,4,3.1,4
				c1,0,1.7-0.2,2.4-0.8c0-0.6,0-1.2,0-1.8c-0.8,0.5-1.1,0.6-1.6,0.6c-0.9,0-1.5-0.9-1.5-2.2c0-2,0-4,0-6c0-3.8-1.8-5.9-4.8-5.9
				c-2,0-3.4,0.8-4.9,3c-0.2-1.6-0.2-1.8-0.6-2.6c-0.8,0-1.6,0-2.4,0c0.4,1.1,0.7,3.3,0.7,5c0,3.5,0,7.1,0,10.6c0.8,0,1.7,0,2.5,0
				C51.2,98.9,51.2,96.7,51.2,94.5z"/>
			<path id="S125" class="st38" d="M76.5,88c0,1.1,0,2.3,0,3.4c0,5.8-1.7,7.7-4.5,7.7c-2.1,0-3.4-1.9-3.4-4.8c0-4.1,2.1-6.9,5.2-6.9
				C74.8,87.4,75.5,87.6,76.5,88 M76.5,85.8c-1.4-0.5-2-0.6-3.3-0.6c-4.3,0-7.3,3.7-7.3,8.9c0,4.5,2.4,7.5,6,7.5
				c2.1,0,3.8-1,4.7-2.8c0.3,2.1,1.5,2.7,2.9,2.7c0.8,0,1.4-0.3,2.1-0.8c0-0.6,0-1.3,0-1.9c-0.6,0.4-1,0.5-1.4,0.5
				c-1.3,0-1.3-0.5-1.3-3.5c0-6.5,0-12.9,0-19.4c-0.8,0-1.7,0-2.5,0C76.5,79.5,76.5,82.6,76.5,85.8z"/>
			<path id="S126" class="st38" d="M102.2,87.3c1.5,0,2.4,1.1,2.4,2.3c0,1.9-2.1,3.2-5.3,3.2c-0.6,0-1,0-1.7-0.1
				C97.8,90,99.8,87.3,102.2,87.3 M106,100.3c0-0.8,0-1.6,0-2.4c-1.5,1-2.9,1.5-4.2,1.5c-2.4,0-3.9-1.7-4.2-4.5c0.8,0.1,1.1,0,1.7,0
				c5,0,7.9-1.9,7.9-5.2c0-2.8-1.9-4.5-5.1-4.5c-4.2,0-7.1,3.6-7.1,8.8c0,4.6,2.5,7.5,6.5,7.5C103.2,101.6,104.5,101.2,106,100.3z"
				/>
			<path id="S127" class="st38" d="M117.8,93c1.7-2.5,3.4-4.9,5.1-7.4c-1,0-2,0-3,0c-1.2,1.8-2.4,3.7-3.5,5.5
				c-1.1-1.8-2.3-3.7-3.4-5.5c-1,0-1.9,0-2.9,0c1.6,2.5,3.3,4.9,4.9,7.4c-1.9,2.7-3.7,5.5-5.6,8.2c1,0,2,0,3,0
				c1.3-2.1,2.7-4.1,4-6.2c1.3,2.1,2.6,4.1,3.9,6.2c1,0,1.9,0,2.9,0C121.4,98.4,119.6,95.7,117.8,93z"/>
			<path id="S128" class="st38" d="M129.1,97.7c0-1.2,0-2.4,0-3.6c0-4.1,1.8-6.7,4.5-6.7c2.3,0,3.6,1.9,3.6,5.2
				c0,3.7-2.2,6.5-4.8,6.5C131.3,99.3,129.9,98.7,129.1,97.7 M133.9,85.1c-2,0-3.6,0.8-5,2.7c-0.1-1.2-0.2-1.5-0.4-2.2
				c-0.8,0-1.7,0-2.5,0c0.4,1.3,0.7,3.3,0.7,4.3c0,7.2,0,14.4,0,21.5c0.8,0,1.7,0,2.5,0c0-3.8,0-7.5,0-11.3c1,0.9,2.4,1.2,3.9,1.2
				c4.2,0,6.9-3.4,6.9-8.8C139.8,87.9,137.4,85.1,133.9,85.1z"/>
			<path id="S129" class="st38" d="M150.8,87.3c1.5,0,2.4,1.1,2.4,2.3c0,1.9-2.1,3.2-5.3,3.2c-0.6,0-1,0-1.7-0.1
				C146.5,90,148.4,87.3,150.8,87.3 M154.6,100.3c0-0.8,0-1.6,0-2.4c-1.5,1-2.9,1.5-4.2,1.5c-2.4,0-3.9-1.7-4.2-4.5
				c0.8,0.1,1.1,0,1.7,0c5,0,7.9-1.9,7.9-5.2c0-2.8-1.9-4.5-5.1-4.5c-4.2,0-7.1,3.6-7.1,8.8c0,4.6,2.5,7.5,6.5,7.5
				C151.8,101.6,153.1,101.2,154.6,100.3z"/>
			<path id="S130" class="st38" d="M162.1,95c0-4.4,1.9-7.3,4.7-7.3c0.5,0,0.7,0.1,1.4,0.2c0-0.7,0.1-1.5,0.1-2.2
				c-0.7-0.4-1-0.4-1.8-0.4c-2.1,0-3.4,1.1-4.6,3.7c0-1.8-0.1-2.3-0.4-3.4c-0.8,0-1.6,0-2.4,0c0.5,1.8,0.6,2.9,0.6,5.1
				c0,3.5,0,7,0,10.4c0.8,0,1.6,0,2.4,0C162.1,99.1,162.1,97.1,162.1,95z"/>
			<path id="S131" class="st38" d="M177.2,100.6c0-0.6,0-1.3,0-1.9c-0.9,0.5-1.2,0.6-1.7,0.6c-1,0-1.4-0.8-1.4-2.6
				c0-3.7,0-7.4,0-11.1c-0.8,0-1.7,0-2.5,0c0,3.7,0,7.5,0,11.2c0,3.2,1,4.6,3,4.6C175.6,101.4,176.2,101.2,177.2,100.6 M173.1,82.4
				c0.8,0,1.5-0.7,1.5-1.5c0-0.9-0.7-1.7-1.7-1.7c-0.8,0-1.5,0.7-1.5,1.7C171.4,81.8,172.2,82.4,173.1,82.4z"/>
			<path id="S132" class="st38" d="M186.2,87.3c1.5,0,2.4,1.1,2.4,2.3c0,1.9-2.1,3.2-5.3,3.2c-0.6,0-1,0-1.7-0.1
				C181.9,90,183.9,87.3,186.2,87.3 M190.1,100.3c0-0.8,0-1.6,0-2.4c-1.5,1-2.9,1.5-4.2,1.5c-2.4,0-3.9-1.7-4.2-4.5
				c0.8,0.1,1.1,0,1.7,0c5,0,7.9-1.9,7.9-5.2c0-2.8-1.9-4.5-5.1-4.5c-4.2,0-7.1,3.6-7.1,8.8c0,4.6,2.5,7.5,6.5,7.5
				C187.3,101.6,188.6,101.2,190.1,100.3z"/>
			<path id="S133" class="st38" d="M197.5,94.5c0-4.1,1.9-6.9,4.6-6.9c1.5,0,2.3,1.3,2.3,3.6c0,2.1,0,4.1,0,6.2c0,2.5,1.2,4,3.1,4
				c1,0,1.7-0.2,2.4-0.8c0-0.6,0-1.2,0-1.8c-0.8,0.5-1.1,0.6-1.6,0.6c-0.9,0-1.5-0.9-1.5-2.2c0-2,0-4,0-6c0-3.8-1.8-5.9-4.8-5.9
				c-2,0-3.4,0.8-4.9,3c-0.2-1.6-0.2-1.8-0.6-2.6c-0.8,0-1.6,0-2.4,0c0.4,1.1,0.7,3.3,0.7,5c0,3.5,0,7.1,0,10.6c0.8,0,1.7,0,2.5,0
				C197.5,98.9,197.5,96.7,197.5,94.5z"/>
			<path id="S134" class="st38" d="M223.3,98c-1.7,1-2.8,1.3-4.2,1.3c-2.5,0-4.2-2.2-4.2-5.4c0-3.9,2-6.3,5-6.3
				c1.2,0,1.7,0.1,3.1,0.8c0.1-0.8,0.3-1.6,0.4-2.3c-1.6-0.7-2.2-0.8-3.8-0.8c-4.6,0-7.4,3.4-7.4,8.8c0,4.8,2.5,7.6,6.8,7.6
				c1.5,0,2.8-0.4,4.3-1.2C223.4,99.6,223.3,98.8,223.3,98z"/>
			<path id="S135" class="st38" d="M233.7,87.3c1.5,0,2.4,1.1,2.4,2.3c0,1.9-2.1,3.2-5.3,3.2c-0.6,0-1,0-1.7-0.1
				C229.4,90,231.3,87.3,233.7,87.3 M237.5,100.3c0-0.8,0-1.6,0-2.4c-1.5,1-2.9,1.5-4.2,1.5c-2.4,0-3.9-1.7-4.2-4.5
				c0.8,0.1,1.1,0,1.7,0c5,0,7.9-1.9,7.9-5.2c0-2.8-1.9-4.5-5.1-4.5c-4.2,0-7.1,3.6-7.1,8.8c0,4.6,2.5,7.5,6.5,7.5
				C234.7,101.6,236,101.2,237.5,100.3z"/>
			<path id="S136" class="st38" d="M251.4,86.3c-1.5-1-3-1.2-4.5-1.2c-3,0-4.8,1.6-4.8,4c0,2.1,1.2,3.3,4.6,5.5
				c1.6,1.1,2.3,1.8,2.3,2.8c0,1.4-0.9,2.2-2.7,2.2c-1.4,0-3-0.6-4.4-1.6c-0.2,0.7-0.4,1.4-0.5,2.2c1.6,1.1,3.2,1.5,5.1,1.5
				c3.1,0,5.1-1.7,5.1-4.3c0-2.3-1-3.3-3.5-5c-2.2-1.5-3.4-2.2-3.4-3.3c0-1.4,1-1.8,2.2-1.8s2.7,0.3,4.2,1.3
				C251.1,87.8,251.2,87.1,251.4,86.3z"/>
			<path id="S137" class="st38" d="M259.3,100.1c0-0.9-0.8-1.7-1.6-1.7c-0.9,0-1.6,0.7-1.6,1.6c0,0.9,0.7,1.6,1.6,1.6
				C258.6,101.6,259.3,101,259.3,100.1z"/>
			<path id="S138" class="st38" d="M-194.9,143.6c0.8,0,1.7,0,2.5,0c0-2.4,0-4.7,0-7.1c0-3.5,1.9-6.4,4.4-6.4c1.8,0,2.5,1,2.5,3.3
				c0,2.1,0,4.1,0,6.2c0,2.9,1.1,4.4,3.1,4.4c0.8,0,1.5-0.2,2.4-0.8c0-0.7,0-1.3,0-2c-0.8,0.5-1.1,0.7-1.6,0.7
				c-0.9,0-1.4-0.8-1.4-2.3c0-2,0-3.9,0-5.9c0-5.1-2.2-5.9-4.8-5.9c-1.9,0-3.5,0.9-4.7,2.7c0-3.8,0-7.7,0-11.5c-0.8,0-1.6,0-2.4,0
				C-194.9,127.1-194.9,135.4-194.9,143.6z"/>
			<path id="S139" class="st38" d="M-169.5,140.8c-0.8,0.6-2,1.1-2.7,1.1c-1.4,0-2.1-1-2.1-2.9c0-2.9,0-5.9,0-8.8c1.5,0,2.9,0,4.4,0
				c0-0.7,0-1.4,0-2.1c-1.5,0-2.9,0-4.4,0c0-1.1,0-2.2,0-3.4c-0.8,0-1.7,0-2.5,0c0,1.1,0,2.2,0,3.4c-0.7,0-1.3,0-2,0
				c0,0.7,0,1.4,0,2.1c0.7,0,1.3,0,2,0c0,2.9,0,5.9,0,8.8c0,3.4,1.5,5,4.3,5c1.2,0,2.2-0.4,3-1
				C-169.5,142.3-169.5,141.5-169.5,140.8z"/>
			<path id="S140" class="st38" d="M-158.1,140.8c-0.8,0.6-2,1.1-2.7,1.1c-1.4,0-2.1-1-2.1-2.9c0-2.9,0-5.9,0-8.8c1.5,0,2.9,0,4.4,0
				c0-0.7,0-1.4,0-2.1c-1.5,0-2.9,0-4.4,0c0-1.1,0-2.2,0-3.4c-0.8,0-1.7,0-2.5,0c0,1.1,0,2.2,0,3.4c-0.7,0-1.3,0-2,0
				c0,0.7,0,1.4,0,2.1c0.7,0,1.3,0,2,0c0,2.9,0,5.9,0,8.8c0,3.4,1.5,5,4.3,5c1.2,0,2.2-0.4,3-1
				C-158.1,142.3-158.1,141.5-158.1,140.8z"/>
			<path id="S141" class="st38" d="M-151.9,140.2c0-1.2,0-2.4,0-3.6c0-4.1,1.8-6.7,4.5-6.7c2.3,0,3.6,1.9,3.6,5.2
				c0,3.7-2.2,6.5-4.8,6.5C-149.7,141.7-151.1,141.2-151.9,140.2 M-147.1,127.5c-2,0-3.6,0.8-5,2.7c-0.1-1.2-0.2-1.5-0.4-2.2
				c-0.8,0-1.7,0-2.5,0c0.4,1.3,0.7,3.3,0.7,4.3c0,7.2,0,14.4,0,21.5c0.8,0,1.7,0,2.5,0c0-3.8,0-7.5,0-11.3c1,0.9,2.4,1.2,3.9,1.2
				c4.2,0,6.9-3.4,6.9-8.8C-141.2,130.4-143.6,127.5-147.1,127.5z"/>
			<path id="S142" class="st38" d="M-128,128.8c-1.5-1-3-1.2-4.5-1.2c-3,0-4.8,1.6-4.8,4c0,2.1,1.2,3.3,4.6,5.5
				c1.6,1.1,2.3,1.8,2.3,2.8c0,1.4-0.9,2.2-2.7,2.2c-1.4,0-3-0.6-4.4-1.6c-0.2,0.7-0.4,1.4-0.5,2.2c1.6,1.1,3.2,1.5,5.1,1.5
				c3.1,0,5.1-1.7,5.1-4.3c0-2.3-1-3.3-3.5-5c-2.2-1.5-3.4-2.2-3.4-3.3c0-1.4,1-1.8,2.2-1.8s2.7,0.3,4.2,1.3
				C-128.3,130.3-128.2,129.5-128,128.8z"/>
			<path id="S143" class="st38" d="M-121.7,144.1c0.9,0,1.6-0.7,1.6-1.6c0-0.9-0.7-1.7-1.7-1.7c-0.9,0-1.6,0.7-1.6,1.6
				C-123.3,143.4-122.6,144.1-121.7,144.1 M-121.7,135.2c0.9,0,1.6-0.7,1.6-1.6c0-0.9-0.7-1.6-1.7-1.6c-0.8,0-1.6,0.7-1.6,1.6
				C-123.3,134.5-122.6,135.2-121.7,135.2z"/>
			<path id="S144" class="st38" d="M-110.1,118.9c-1.8,9-3.5,18-5.3,27c0.7,0,1.4,0,2.2,0c1.8-9,3.5-18,5.3-27
				C-108.6,118.9-109.4,118.9-110.1,118.9z"/>
			<path id="S145" class="st38" d="M-98.7,118.9c-1.8,9-3.5,18-5.3,27c0.7,0,1.4,0,2.2,0c1.8-9,3.5-18,5.3-27
				C-97.3,118.9-98,118.9-98.7,118.9z"/>
			<path id="S146" class="st38" d="M-84.3,140.8c-0.8,0.6-2,1.1-2.7,1.1c-1.4,0-2.1-1-2.1-2.9c0-2.9,0-5.9,0-8.8c1.5,0,2.9,0,4.4,0
				c0-0.7,0-1.4,0-2.1c-1.5,0-2.9,0-4.4,0c0-1.1,0-2.2,0-3.4c-0.8,0-1.7,0-2.5,0c0,1.1,0,2.2,0,3.4c-0.7,0-1.3,0-2,0
				c0,0.7,0,1.4,0,2.1c0.7,0,1.3,0,2,0c0,2.9,0,5.9,0,8.8c0,3.4,1.5,5,4.3,5c1.2,0,2.2-0.4,3-1C-84.3,142.3-84.3,141.5-84.3,140.8z"
				/>
			<path id="S147" class="st38" d="M-77.1,142.5c0-0.9-0.8-1.7-1.6-1.7c-0.9,0-1.6,0.7-1.6,1.6c0,0.9,0.7,1.6,1.6,1.6
				C-77.8,144.1-77.1,143.4-77.1,142.5z"/>
			<path id="S148" class="st38" d="M-66.3,141.3c-0.8,0.5-1.2,0.7-1.6,0.7c-1,0-1.5-0.9-1.5-3.2c0-6.6,0-13.2,0-19.8
				c-0.8,0-1.7,0-2.5,0c0,6.6,0,13.3,0,19.9c0,4.2,1.5,5.2,3.2,5.2c1,0,1.4-0.1,2.3-0.8C-66.3,142.5-66.3,141.9-66.3,141.3z"/>
			<path id="S149" class="st38" d="M-51.8,128c-0.8,0-1.7,0-2.5,0c0,2.1,0,4.3,0,6.4c0,5-2,7.3-4.5,7.3c-1.5,0-2.6-0.8-2.6-3.8
				c0-3.8,0.1-7.1-0.4-9.9c-0.8,0-1.6,0-2.3,0c0.5,2.9,0.4,4.6,0.4,9.8c0,4.7,2,6.1,4.8,6.1c2,0,3.4-0.8,4.7-2.6c0,1,0,2.1,0,3.1
				c0,5.7-1.7,7.7-4.6,7.7c-1.5,0-3.4-0.8-4.5-1.8c-0.2,0.7-0.4,1.3-0.6,2c1.1,1,3.2,1.8,5.2,1.8c3.6,0,6.9-1.7,6.9-9.6
				C-51.8,139-51.8,133.5-51.8,128z"/>
			<path id="S150" class="st38" d="M-41.9,118.9c-1.8,9-3.5,18-5.3,27c0.7,0,1.4,0,2.2,0c1.8-9,3.5-18,5.3-27
				C-40.5,118.9-41.2,118.9-41.9,118.9z"/>
			<path id="S151" class="st38" d="M-28.5,131.9c4.6,2,5.9,3.2,5.9,5.6c0,2.6-2.1,4.2-5.3,4.2c-3.4,0-5.7-1.7-5.7-4.5
				C-33.6,134.9-32,133.3-28.5,131.9 M-28.3,120.6c2.9,0,4.8,1.4,4.8,3.6c0,2.1-1.8,3.9-4.6,5.3c-3.2-1.5-4.7-3.1-4.7-5.2
				C-32.8,122.1-31,120.6-28.3,120.6 M-28.1,118.4c-4.9,0-7.5,2.1-7.5,5.8c0,3,1.3,4.9,4.8,6.6c-3.1,1.1-5.4,3.1-5.4,6.5
				c0,4.1,3.4,6.8,8.5,6.8c4.9,0,8-2.5,8-6.5c0-3.2-1.8-5.3-5.7-7c3.4-1.7,4.8-3.6,4.8-6.3C-20.7,120.8-23.7,118.4-28.1,118.4z"/>
			<path id="S152" class="st38" d="M-2.7,118.9c-3.3,0-6.5,0-9.8,0c0,0.7,0,1.4,0,2.1c1.2,0,2.5,0,3.7,0c0,5.1,0,10.3,0,15.4
				c0,3.9-0.9,5.5-3.1,5.5c-2.5,0-3.5-1.8-3.5-5.2c-0.8,0-1.7,0-2.5,0c0,5.2,2.1,7.5,5.9,7.5c4,0,5.8-2.3,5.8-7.8
				c0-5.1,0-10.3,0-15.4c1.2,0,2.3,0,3.5,0C-2.7,120.3-2.7,119.6-2.7,118.9z"/>
			<path id="S153" class="st38" d="M19.9,131c-2.8,0-5.7,0-8.5,0c0,0.8,0,1.6,0,2.4c1.1,0,2.1,0,3.2,0c0.2,1.3,0.2,1.8,0.2,2.5
				c0,4.1-2.4,5.6-5.7,5.6c-4.7,0-7.3-3.8-7.3-10.3c0-6.6,2.9-10.5,7.8-10.5c2.5,0,4.4,1,5.8,3c0.7-0.5,1.3-1,2-1.4
				c-1.8-2.7-4.3-4-7.7-4C3,118.3-1,123.1-1,131.1s3.8,12.8,10,12.8c5.2,0,8.6-3.1,8.6-8.2c0-0.5-0.2-2.4-0.2-2.4c0.9,0,1.7,0,2.6,0
				C19.9,132.6,19.9,131.8,19.9,131z"/>
			<path id="S154" class="st38" d="M33.3,141.1c-1,0.2-1.5,0.3-3,0.3c-1,0-4.8-0.1-5.7-0.1c2.8-3.8,5.7-7.6,8.5-11.4
				c0-0.6,0-1.2,0-1.8c-3.6,0-7.3,0-10.9,0c0,0.7,0,1.4,0,2.1c2.6,0,5.1,0,7.7,0c-2.8,3.7-5.5,7.4-8.3,11.1c0,0.7,0,1.5,0,2.2
				c1.5,0.1,4.5,0.1,6.1,0.1c2.2,0,4.4-0.1,5.7-0.3C33.3,142.6,33.3,141.8,33.3,141.1z"/>
			<path id="S155" class="st38" d="M50.9,140.2c-0.8-1-1.5-1.9-2.3-2.9c-0.6,0.5-1.3,1-1.9,1.5c0.7,0.8,1.3,1.7,2,2.5
				c-1,0.2-1.4,0.3-2.1,0.3c-4.7,0-7.3-3.4-7.3-9.4c0-7.3,2.6-11.2,7.4-11.2c4.6,0,7.4,3.6,7.4,9.9C54.1,135,52.9,138.3,50.9,140.2
				 M50.3,143.5c1,1.3,2,2.5,3,3.8c0.6-0.5,1.3-1,1.9-1.5c-0.9-1.2-1.8-2.3-2.7-3.5c2.9-2.5,4.2-6.2,4.2-11.3
				c0-7.9-3.6-12.5-9.9-12.5c-6.5,0-10.1,4.8-10.1,13.3c0,7.7,3.6,12.2,9.9,12.2C48,144.1,48.6,144,50.3,143.5z"/>
		</g>
		<g>
			<path id="S1_9_" class="st38" d="M-183-72.5c0.1-2.2,0.2-4.3,0.3-6.5c2.4,1.1,3.4,2.2,3.4,3.7C-179.3-73.5-180.6-72.5-183-72.5
				 M-188.8-90.4c0-1.4,0.9-2.5,3.4-2.5c0,1-0.2,5.9-0.2,5.9C-187.9-88.1-188.8-89.2-188.8-90.4 M-182.4-86.1
				c0.1-2.2,0.2-4.5,0.3-6.8c2.5,0.3,3.9,0.7,7,2.3c0-1.8,0.1-3.6,0.1-5.4c-1.9-0.9-4.3-1.6-6.8-1.9c0.1-1.1,0.1-2.3,0.2-3.4
				c-1,0-2.1,0-3.1,0c-0.1,1.1-0.1,2.2-0.2,3.3c-6.2,0-9.6,3.3-9.6,8.1c0,4.1,2.1,6.4,8.6,10c-0.1,2.4-0.2,4.8-0.3,7.3
				c-3.9-0.7-4.3-0.9-8.6-3.2c0,1.8,0,3.6,0,5.4c3.5,1.7,4.4,2,8.4,2.6c0,1.3-0.1,2.5-0.1,3.8c1,0,2,0,3.1,0c0-1.3,0.1-2.6,0.1-3.9
				c5.6,0,9.8-2.6,9.8-8.2C-173.7-80.4-176-83-182.4-86.1z"/>
			<path id="S2_8_" class="st38" d="M-156.3-97.5c-1.8,0-3.7,0-5.5,0c-1.8,2.2-6.3,6.1-6.3,6.1c0.9,1.3,1.9,2.5,2.8,3.8
				c1.2-1.2,2.2-2.2,3.3-3.4c0,7.7,0,15.4,0,23.1c1.9,0,3.8,0,5.7,0C-156.3-77.7-156.3-87.6-156.3-97.5z"/>
			<path id="S3_6_" class="st38" d="M-139.5-70.4c0-1.9-1.5-3.4-3.4-3.4c-1.7,0-3.1,1.4-3.1,3.2s1.5,3.3,3.3,3.3
				S-139.5-68.6-139.5-70.4z"/>
			<path id="S4_2_" class="st38" d="M-120.3-83c0,6.6-1.5,9.9-4.4,9.9c-3.2,0-4.4-3.1-4.4-9.1c0-7.1,1.4-10.1,4.5-10.1
				S-120.3-89.5-120.3-83 M-124.7-67.3c7.3,0,11-4.7,11-15.9c0-9.9-3.7-14.9-11-14.9c-7.2,0-11,5.1-11,15.4
				C-135.7-72.3-131.9-67.3-124.7-67.3z"/>
			<path id="S5_2_" class="st38" d="M-77-97.5c-7.4,0-14.8,0-22.2,0c0,1.6,0,3.2,0,4.8c2.6,0,5.2,0,7.9,0c0,8.3,0,16.6,0,24.9
				c2.2,0,4.4,0,6.5,0c0-8.3,0-16.6,0-24.9c2.6,0,5.2,0,7.9,0C-77-94.3-77-95.9-77-97.5z"/>
			<path id="S6_2_" class="st38" d="M-67.7-75.2c0-4.5,1.7-6.9,4.9-6.9c0.6,0,0.9,0.1,1.7,0.3c0-1.5,0.1-3.1,0.1-4.6
				c-1-0.4-1.4-0.5-2.1-0.5c-2,0-3.4,1-5.1,3.5c0-1.4-0.1-1.7-0.5-3.1c-1.7,0-3.5,0-5.2,0c0.6,2.2,0.8,3.3,0.8,6.2
				c0,4.2,0,8.4,0,12.5c1.8,0,3.7,0,5.5,0C-67.7-70.3-67.7-72.7-67.7-75.2z"/>
			<path id="S7_2_" class="st38" d="M-47.1-68.5c0-1.3,0-2.5,0-3.8c-1.3,0.5-1.7,0.7-2.2,0.7c-1.3,0-1.9-1-1.9-3.1
				c0-3.9,0-7.9,0-11.8c-1.9,0-3.8,0-5.7,0c0,4.5,0,9,0,13.5c0,3.8,1.7,5.6,5.4,5.6C-49.4-67.5-48.7-67.6-47.1-68.5 M-53.8-89
				c1.8,0,3.3-1.4,3.3-3.1c0-1.8-1.6-3.4-3.3-3.4c-2,0-3.4,1.5-3.4,3.3S-55.7-89-53.8-89z"/>
			<path id="S8_1_" class="st38" d="M-33.9-72.2c-1,0.5-1.5,0.7-2.1,0.7c-1.2,0-1.9-0.8-1.9-2.5c0-7.8,0-15.6,0-23.4
				c-1.9,0-3.8,0-5.7,0c0,7.9,0,15.9,0,23.8c0,4.5,1.5,6.2,5.6,6.2c1.7,0,2.9-0.3,4-1C-33.9-69.7-33.9-70.9-33.9-72.2z"/>
			<path id="S9_1_" class="st38" d="M-20.7-72.2c-1,0.5-1.5,0.7-2.1,0.7c-1.2,0-1.9-0.8-1.9-2.5c0-7.8,0-15.6,0-23.4
				c-1.9,0-3.8,0-5.7,0c0,7.9,0,15.9,0,23.8c0,4.5,1.5,6.2,5.6,6.2c1.7,0,2.9-0.3,4-1C-20.7-69.7-20.7-70.9-20.7-72.2z"/>
			<path id="S10_1_" class="st38" d="M-7.8-68.5c0-1.3,0-2.5,0-3.8c-1.3,0.5-1.7,0.7-2.2,0.7c-1.3,0-1.9-1-1.9-3.1
				c0-3.9,0-7.9,0-11.8c-1.9,0-3.8,0-5.7,0c0,4.5,0,9,0,13.5c0,3.8,1.7,5.6,5.4,5.6C-10.1-67.5-9.4-67.6-7.8-68.5 M-14.5-89
				c1.8,0,3.3-1.4,3.3-3.1c0-1.8-1.6-3.4-3.3-3.4c-2,0-3.4,1.5-3.4,3.3S-16.3-89-14.5-89z"/>
			<path id="S11_1_" class="st38" d="M4.3-82.1c2.5,0,4.1,1.8,4.1,4.8c0,3.2-1.5,5-4.1,5s-3.9-1.8-3.9-5C0.3-80.2,1.7-82.1,4.3-82.1
				 M4.3-67.3c5.9,0,9.8-3.6,9.8-10s-3.9-9.9-9.8-9.8c-6,0-9.8,3.6-9.8,9.8C-5.6-70.8-1.6-67.3,4.3-67.3z"/>
			<path id="S12_1_" class="st38" d="M25.2-75.9c0-5.6,2.7-6.2,3.4-6.2c0.8,0,2,0.2,2,3.2c0,2.2,0,4.3,0,6.5c0,3.4,1.7,5,5.5,5
				c1.8,0,3.5-0.4,4.7-1.2c0-1.2,0-2.5,0-3.7c-1.1,0.6-1.7,0.8-2.4,0.8c-1.5,0-2-0.7-2-2.7c0-1.9,0-3.8,0-5.6c0-4.4-2.2-7.2-5.9-7.2
				c-2.2,0-4,0.8-5.8,2.6c-0.2-1-0.3-1.3-0.6-2.1c-1.9,0-3.8,0-5.6,0c0.6,1.3,0.9,3.8,0.9,6c0,4.2,0,8.5,0,12.7c1.9,0,3.8,0,5.7,0
				C25.2-70.5,25.2-73.2,25.2-75.9z"/>
			<path id="S13_1_" class="st38" d="M62.8-73.2c0-1.2,0-2.4,0-3.6c0-2.5,1.4-4.7,4-4.7c2.1,0,3.2,1.5,3.2,3.9c0,3.1-1.7,5-4.5,5
				C64.3-72.6,63.8-72.6,62.8-73.2 M62.8-84.8c0-4.2,0-8.4,0-12.7c-1.8,0-3.7,0-5.5,0c0,9.5,0,18.9,0,28.4c2.4,1.1,5.5,1.7,8.2,1.7
				c6.4,0,10.4-4.4,10.4-11.3c0-5.1-3-8.5-7.6-8.4C66-87.1,64.2-86.3,62.8-84.8z"/>
			<path id="S14_1_" class="st38" d="M98.5-86.5c-1.9,0-3.8,0-5.7,0c0,3.2,0,6.4,0,9.6c0,2.7-1.4,4.5-3.4,4.5
				c-1.5,0-2.2-0.9-2.2-3.1c0-3.2,0.2-6.3-0.1-11c-1.9,0-3.8,0-5.8,0c0.3,4.5,0.1,7.7,0.1,11.8c0,4.5,2.8,7.3,6.2,7.3
				c2,0,3.6-0.7,5.2-2.3c0,0.7,0,1.4,0,2.1c0,6.2-1.4,8.3-5,8.3c-1.7,0-3.3-0.5-5.1-1.1c0,1.4,0,2.8,0,4.2c2,0.6,3.7,1,5.6,1
				c7.2,0,10.4-2.8,10.4-12.3C98.5-73.8,98.5-80.2,98.5-86.5z"/>
			<path id="S15_1_" class="st38" d="M136.3-72.7c-3.9,0-7.7,0-11.6,0c3.7-3.1,11.4-10.1,11.4-17.1c0-5-3.6-8.2-9.1-8.2
				c-8,0-9.9,4.7-11,7.3c1.4,1,2.7,2,4.1,3c0.9-2.3,2.5-5.1,5.6-5.1c2.1,0,3.8,1.5,3.8,3.6c0,5.9-7.7,11.6-13,18c0,1.1,0,2.3,0,3.4
				c6.6,0,13.2,0,19.7,0C136.3-69.5,136.3-71.1,136.3-72.7z"/>
			<path id="S16_1_" class="st38" d="M154.3-83c0,6.6-1.5,9.9-4.4,9.9c-3.2,0-4.4-3.1-4.4-9.1c0-7.1,1.4-10.1,4.5-10.1
				S154.3-89.5,154.3-83 M150-67.3c7.3,0,11-4.7,11-15.9c0-9.9-3.7-14.9-11-14.9c-7.2,0-11,5.1-11,15.4
				C138.9-72.3,142.8-67.3,150-67.3z"/>
			<path id="S17_1_" class="st38" d="M167.3-80.6c0.7,0,1.4-0.1,2-0.1c5.5,0,7,2,7,4.7c0,2.4-1.7,3.9-4.5,3.9
				c-2.5,0-4.8-1.1-7.1-3.7c-0.9,1.3-1.9,2.5-2.8,3.8c3.1,3.5,5.9,4.8,10.7,4.8c6.4,0,10.1-3.4,10.1-8.3c0-4.2-2.1-6.8-6-7.6
				c3.8-1.6,5.3-3.6,5.3-7c0-4.7-3.5-7.8-9-7.8c-4.4,0-7.7,1.4-9.8,4c0.8,1.4,1.6,2.8,2.4,4.2c2.2-2.2,4-3.1,6.1-3.1
				c2.5,0,4.2,1.4,4.2,3.5c0,2.7-1.2,3.9-6,3.9c-0.8,0-1.6,0-2.6-0.1C167.3-84,167.3-82.3,167.3-80.6z"/>
			<path id="S18_1_" class="st38" d="M201-83c0,6.6-1.5,9.9-4.4,9.9c-3.2,0-4.4-3.1-4.4-9.1c0-7.1,1.4-10.1,4.5-10.1
				C199.7-92.3,201-89.5,201-83 M196.6-67.3c7.3,0,11-4.7,11-15.9c0-9.9-3.7-14.9-11-14.9c-7.2,0-11,5.1-11,15.4
				C185.6-72.3,189.4-67.3,196.6-67.3z"/>
		</g>
	</g>
</g>
<text transform="matrix(0.9447 0 0 1 134.9021 160.6082)" class="st39 st40">AI-powered software across industries</text>
<text transform="matrix(0.9447 0 0 1 134.9021 189.4978)" class="st39 st40">healthcare, inance, retail, and beyond.</text>
<text transform="matrix(0.9447 0 0 1 134.9021 218.4558)" class="st39 st40">Represents the full spectrum of user-facing</text>
<text transform="matrix(0.9447 0 0 1 134.9021 247.3455)" class="st39 st40">AI applications and experiences.</text>
<text transform="matrix(0.9447 0 0 1 134.9021 276.2351)" class="st39 st40">https://t.ly/8JGzQ</text>
<text transform="matrix(0.9905 0 0 1 129.5496 82.1716)" class="st41 st42 st43">USER APP</text>
<text transform="matrix(1 0 0 1 133.1658 129.1902)" class="st42 st44">$1.0 Trillion by 2030</text>
<g id="Layer_2_3_">
	<text transform="matrix(1 0 0 1 59.1297 549.9539)" class="st45 st46">Lorem ipsum</text>
	<text transform="matrix(1 0 0 1 53.8543 559.241)" class="st42 st44">$100 Billion by 2030</text>
	<text transform="matrix(0.9905 0 0 1 50.2386 512.2224)" class="st47 st42 st43">TRAINING</text>
	<text transform="matrix(0.9447 0 0 1 55.5906 590.658)" class="st39 st40">The compute backbone for developing </text>
	<text transform="matrix(0.9447 0 0 1 55.5906 619.5486)" class="st39 st40">and refining AI models. Includes data </text>
	<text transform="matrix(0.9447 0 0 1 55.5906 648.5066)" class="st39 st40">pipelines, high-performance infrastructure, </text>
	<text transform="matrix(0.9447 0 0 1 55.5906 677.3962)" class="st39 st40">and custom training environments.</text>
	<text transform="matrix(0.9447 0 0 1 55.5906 706.2849)" class="st39 st40">https://t.ly/7G1Dz</text>
	<text transform="matrix(1 0 0 1 52.2674 961.2361)" class="st45 st46">Lorem ipsum</text>
	<text transform="matrix(1 0 0 1 46.9925 970.5232)" class="st42 st44">$360 Billion by 2030</text>
	<text transform="matrix(0.9905 0 0 1 43.3763 923.5046)" class="st48 st42 st43">SILICON</text>
	<text transform="matrix(0.9447 0 0 1 48.7288 1001.9412)" class="st39 st40">AI-specific chips including GPUs, TPUs, </text>
	<text transform="matrix(0.9447 0 0 1 48.7288 1030.8298)" class="st39 st40">ASICs, and licensed IP cores.</text>
	<text transform="matrix(0.9447 0 0 1 48.7288 1059.7888)" class="st39 st40">The computational foundation of modern </text>
	<text transform="matrix(0.9447 0 0 1 48.7288 1088.6785)" class="st39 st40">artificial intelligence.</text>
	<text transform="matrix(0.9447 0 0 1 48.7288 1117.5681)" class="st39 st40">https://tiny.ee/2fv7</text>
	<text transform="matrix(1 0 0 1 1592.405 939.2263)" class="st45 st46">Lorem ipsum</text>
	<text transform="matrix(1 0 0 1 1578.571 948.5134)" class="st42 st44">$76.7 Billion by 2030</text>
	<text transform="matrix(0.9905 0 0 1 1517.1423 901.4949)" class="st49 st42 st43">HARDWARE</text>
	<text transform="matrix(0.9625 0 0 1 1413.1443 992.6599)" class="st39 st50">Physical infrastructure for AI at scaleservers, </text>
	<text transform="matrix(0.9625 0 0 1 1390.821 1023.1287)" class="st39 st50">edge devices, accelerators. Essential for powering </text>
	<text transform="matrix(0.9625 0 0 1 1542.7312 1053.5271)" class="st39 st50">both model training and inference.</text>
	<text transform="matrix(0.9625 0 0 1 1724.8259 1083.9949)" class="st39 st50">https://t.ly/Zctlb</text>
	<text transform="matrix(1 0 0 1 1534.3123 547.2219)" class="st42 st44">$255 Billion by 2030</text>
	<text transform="matrix(0.9905 0 0 1 1494.9822 500.2039)" class="st51 st42 st43">INFERENCE</text>
	<text transform="matrix(0.9625 0 0 1 1425.0056 576.4177)" class="st39 st50">Real-time deployment of trained models </text>
	<text transform="matrix(0.9625 0 0 1 1453.9353 606.8865)" class="st39 st50">across cloud and edge environments. </text>
	<text transform="matrix(0.9625 0 0 1 1393.3689 637.2849)" class="st39 st50">Powers voice assistants, image recognition, </text>
	<text transform="matrix(0.9625 0 0 1 1506.575 667.7537)" class="st39 st50">autonomous systems, and more.</text>
	<text transform="matrix(0.9625 0 0 1 1646.1345 698.2214)" class="st39 st50">https://t.ly/AB8Fy</text>
</g>
</svg>
