<svg width="1450" height="340" xmlns="http://www.w3.org/2000/svg" version="1.1">
 <defs>
  <linearGradient y2="112.76%" x2="8.82%" y1="50.87%" x1="74.06%" id="d545e5f1-1092-4173-bcc8-4492bb10a215_0">
   <stop stop-color="rgb(0,87,155)" offset="0.00%"/>
   <stop stop-color="rgb(1,44,79)" offset="100.00%"/>
  </linearGradient>
 </defs>
 <g>
  <title>Layer 1</title>
  <g id="Layer_4">
   <path d="m1158.791,1490.531c-0.036,0.013 -357.277,126.465 -357.313,126.478c0.023,-0.025 234.399,-251.627 234.422,-251.652c0.012,0.013 122.879,125.161 122.891,125.174z" fill-rule="evenodd" fill="url(#d545e5f1-1092-4173-bcc8-4492bb10a215_0)" id="S1"/>
  </g>
  <g id="svg_4">
   <g id="Layer_3">
    <path d="m158.67137,197.89877c0.00876,0.00876 87.30983,87.07339 87.3186,87.08216c-0.00728,0 -73.16266,0.0756 -73.16993,0.0756c-0.00282,-0.00282 -27.37206,-27.70504 -27.37488,-27.70771c0,-0.00149 0.18045,-14.00193 0.18045,-14.00326c0.00134,-0.0046 13.04458,-45.44218 13.04577,-45.44678z" fill-rule="evenodd" fill="#00579b" id="S1"/>
   </g>
   <g id="Layer_1">
    <path d="m54.3,166.32604c0.01188,-0.01188 118.68236,-118.94315 118.69424,-118.95504c0.00728,0 72.73834,0.13723 72.74562,0.13723c-0.01559,0.01545 -155.38918,154.50001 -155.40478,154.51546c-0.00356,-0.00356 -36.03152,-35.69409 -36.03508,-35.69765z" fill-rule="evenodd" fill="#56c4f7" id="S1"/>
    <path d="m173.00835,157.2941c-0.00282,0.00267 -27.41097,27.37354 -27.41364,27.37637c-0.00371,0.00371 -36.5996,36.54969 -36.60331,36.55341c0.00371,0.00356 36.38484,36.01726 36.3884,36.02082c0.00371,-0.00371 24.12784,-24.02997 36.55059,-36.40222c21.08829,-21.00274 63.97611,-63.71621 63.9825,-63.72259c-0.00728,0 -72.89726,0.17421 -72.90453,0.17421z" fill-rule="evenodd" fill="#56c4f7" id="S2"/>
    <path id="svg_1" d="m181.93039,220.84248c-12.42274,12.37224 -36.54687,36.3985 -36.55059,36.40222" stroke-linejoin="round" stroke="#2bb5f4" fill="none"/>
    <path id="svg_2" d="m145.3798,257.2447c-0.00356,-0.00356 -36.38469,-36.01726 -36.3884,-36.02082" stroke-linejoin="round" stroke="#2bb5f4" fill="none"/>
    <path id="svg_3" d="m108.9914,221.22387c0.00371,-0.00371 36.5996,-36.54969 36.60331,-36.55341" stroke-linejoin="round" stroke="#2bb5f4" fill="none"/>
    <path d="m145.59471,184.67047c12.11189,12.05724 36.33449,36.17083 36.33568,36.17201c-12.42274,12.37224 -36.54687,36.3985 -36.55059,36.40222c-0.00356,-0.00356 -36.38469,-36.01726 -36.3884,-36.02082c0.00371,-0.00371 36.5996,-36.54969 36.60331,-36.55341z" fill-rule="evenodd" fill="#2bb5f4" id="S3"/>
   </g>
  </g>
  <text xml:space="preserve" text-anchor="start" font-family="'Sora'" font-size="100" id="svg_5" y="200.21376" x="353" stroke-width="0" stroke="#000" fill="#000000">Freeman Constructs</text>
 </g>
</svg>