<?xml version="1.0" encoding="utf-8"?>
<!-- Generator: Moho 14.2 build 20240604 -->
<!DOCTYPE svg PUBLIC "-//W3C//DTD SVG 1.1//EN" "http://www.w3.org/Graphics/SVG/1.1/DTD/svg11.dtd">
<svg version="1.1" id="Frame_0" xmlns="http://www.w3.org/2000/svg" xmlns:xlink="http://www.w3.org/1999/xlink" width="2000px" height="2000px">
<g id="Layer_3">
<path id="S1" fill="#00579b" fill-rule="evenodd" stroke="none" d="M 889.055 1215.907 C 889.114 1215.966 1476.931 1802.191 1476.990 1802.250 C 1476.941 1802.250 984.370 1802.759 984.321 1802.759 C 984.302 1802.740 800.019 1616.215 800.000 1616.197 C 800.000 1616.187 801.215 1521.919 801.215 1521.910 C 801.224 1521.879 889.047 1215.938 889.055 1215.907 Z"/>
</g>
<g id="Layer_4">
<linearGradient id="d545e5f1-1092-4173-bcc8-4492bb10a215_0" x1="74.06%" y1="50.87%" x2="8.82%" y2="112.76%">
<stop offset="0.00%" style="stop-color:rgb(0,87,155);stop-opacity:1.00" />
<stop offset="100.00%" style="stop-color:rgb(1,44,79);stop-opacity:1.00" />
</linearGradient>
<path id="S1" fill="url(#d545e5f1-1092-4173-bcc8-4492bb10a215_0)" fill-rule="evenodd" stroke="none" d="M 1158.791 1490.531 C 1158.755 1490.544 801.514 1616.996 801.478 1617.009 C 801.501 1616.984 1035.877 1365.382 1035.900 1365.357 C 1035.912 1365.370 1158.779 1490.518 1158.791 1490.531 Z"/>
</g>
<g id="Layer_1">
<path id="S1" fill="#56c4f7" fill-rule="evenodd" stroke="none" d="M 186.300 1003.321 C 186.380 1003.241 985.414 202.451 985.494 202.371 C 985.543 202.371 1475.257 203.295 1475.306 203.295 C 1475.201 203.399 429.037 1243.577 428.932 1243.681 C 428.908 1243.657 186.324 1003.345 186.300 1003.321 Z"/>
<path id="S2" fill="#56c4f7" fill-rule="evenodd" stroke="none" d="M 985.589 942.507 C 985.570 942.525 801.025 1126.819 801.007 1126.838 C 800.982 1126.863 554.574 1372.935 554.549 1372.960 C 554.574 1372.984 799.536 1615.472 799.560 1615.496 C 799.585 1615.471 962.018 1453.697 1045.663 1370.392 C 1187.655 1228.976 1476.428 941.377 1476.471 941.334 C 1476.422 941.334 985.638 942.507 985.589 942.507 Z"/>
<path fill="none" stroke="#2bb5f4" stroke-width="1" stroke-linecap="butt" stroke-linejoin="round" d="M 1045.663 1370.392 C 962.018 1453.697 799.585 1615.471 799.560 1615.496 "/>
<path fill="none" stroke="#2bb5f4" stroke-width="1" stroke-linecap="butt" stroke-linejoin="round" d="M 799.560 1615.496 C 799.536 1615.472 554.574 1372.984 554.549 1372.960 "/>
<path fill="none" stroke="#2bb5f4" stroke-width="1" stroke-linecap="butt" stroke-linejoin="round" d="M 554.549 1372.960 C 554.574 1372.935 800.982 1126.863 801.007 1126.838 "/>
<path id="S3" fill="#2bb5f4" fill-rule="evenodd" stroke="none" d="M 801.007 1126.838 C 882.559 1208.022 1045.655 1370.384 1045.663 1370.392 C 962.018 1453.697 799.585 1615.471 799.560 1615.496 C 799.536 1615.472 554.574 1372.984 554.549 1372.960 C 554.574 1372.935 800.982 1126.863 801.007 1126.838 Z"/>
</g>
</svg>
